<svg xmlns="http://www.w3.org/2000/svg" viewBox="0 0 512 512" fill="none">
<path d="M 256.00 115.57 L 256.00 64.26 L 256.00 64.26 L 256.00 115.57 L 256.00 166.87 L 256.00 166.87 L 256.00 115.57" stroke="#b7924e" stroke-width="1.00" stroke-opacity="0.589" stroke-linecap="round" stroke-linejoin="round"/>
<path d="M 223.62 135.16 L 208.81 79.89 L 204.84 65.07 L 215.68 105.54 L 230.50 160.82 L 234.46 175.63 L 223.62 135.16" stroke="#b7924e" stroke-width="1.00" stroke-opacity="0.590" stroke-linecap="round" stroke-linejoin="round"/>
<path d="M 296.32 105.54 L 307.16 65.07 L 303.19 79.89 L 288.38 135.16 L 277.54 175.63 L 281.50 160.82 L 296.32 105.54" stroke="#b7924e" stroke-width="1.00" stroke-opacity="0.590" stroke-linecap="round" stroke-linejoin="round"/>
<path d="M 200.59 160.03 L 170.97 108.73 L 156.16 83.07 L 170.97 108.73 L 200.59 160.03 L 215.41 185.69 L 200.59 160.03" stroke="#b7924e" stroke-width="1.00" stroke-opacity="0.595" stroke-linecap="round" stroke-linejoin="round"/>
<path d="M 341.03 108.73 L 355.84 83.07 L 341.03 108.73 L 311.41 160.03 L 296.59 185.69 L 311.41 160.03 L 341.03 108.73" stroke="#b7924e" stroke-width="1.00" stroke-opacity="0.595" stroke-linecap="round" stroke-linejoin="round"/>
<path d="M 186.32 186.32 L 145.86 145.86 L 116.23 116.23 L 127.08 127.08 L 167.54 167.54 L 197.16 197.16 L 186.32 186.32" stroke="#b7924e" stroke-width="1.00" stroke-opacity="0.604" stroke-linecap="round" stroke-linejoin="round"/>
<path d="M 384.92 127.08 L 395.77 116.23 L 366.14 145.86 L 325.68 186.32 L 314.84 197.16 L 344.46 167.54 L 384.92 127.08" stroke="#b7924e" stroke-width="1.00" stroke-opacity="0.604" stroke-linecap="round" stroke-linejoin="round"/>
<path d="M 178.81 211.44 L 134.38 185.78 L 89.95 160.13 L 89.95 160.13 L 134.38 185.78 L 178.81 211.44 L 178.81 211.44" stroke="#b7924e" stroke-width="1.00" stroke-opacity="0.614" stroke-linecap="round" stroke-linejoin="round"/>
<path d="M 422.05 160.13 L 422.05 160.13 L 377.62 185.78 L 333.19 211.44 L 333.19 211.44 L 377.62 185.78 L 422.05 160.13" stroke="#b7924e" stroke-width="1.00" stroke-opacity="0.614" stroke-linecap="round" stroke-linejoin="round"/>
<path d="M 175.63 234.46 L 135.16 223.62 L 79.89 208.81 L 65.07 204.84 L 105.54 215.68 L 160.82 230.50 L 175.63 234.46" stroke="#b7924e" stroke-width="1.00" stroke-opacity="0.627" stroke-linecap="round" stroke-linejoin="round"/>
<path d="M 446.93 204.84 L 432.11 208.81 L 376.84 223.62 L 336.37 234.46 L 351.18 230.50 L 406.46 215.68 L 446.93 204.84" stroke="#b7924e" stroke-width="1.00" stroke-opacity="0.627" stroke-linecap="round" stroke-linejoin="round"/>
<path d="M 455.68 256.00 L 426.06 256.00 L 366.81 256.00 L 337.19 256.00 L 366.81 256.00 L 426.06 256.00 L 455.68 256.00" stroke="#b7924e" stroke-width="1.00" stroke-opacity="0.640" stroke-linecap="round" stroke-linejoin="round"/>
<path d="M 174.81 256.00 L 145.19 256.00 L 85.94 256.00 L 56.32 256.00 L 85.94 256.00 L 145.19 256.00 L 174.81 256.00" stroke="#b7924e" stroke-width="1.00" stroke-opacity="0.640" stroke-linecap="round" stroke-linejoin="round"/>
<path d="M 446.93 307.16 L 406.46 296.32 L 351.18 281.50 L 336.37 277.54 L 376.84 288.38 L 432.11 303.19 L 446.93 307.16" stroke="#b7924e" stroke-width="1.00" stroke-opacity="0.653" stroke-linecap="round" stroke-linejoin="round"/>
<path d="M 175.63 277.54 L 160.82 281.50 L 105.54 296.32 L 65.07 307.16 L 79.89 303.19 L 135.16 288.38 L 175.63 277.54" stroke="#b7924e" stroke-width="1.00" stroke-opacity="0.653" stroke-linecap="round" stroke-linejoin="round"/>
<path d="M 422.05 351.87 L 377.62 326.22 L 333.19 300.56 L 333.19 300.56 L 377.62 326.22 L 422.05 351.87 L 422.05 351.87" stroke="#b7924e" stroke-width="1.00" stroke-opacity="0.666" stroke-linecap="round" stroke-linejoin="round"/>
<path d="M 178.81 300.56 L 178.81 300.56 L 134.38 326.22 L 89.95 351.87 L 89.95 351.87 L 134.38 326.22 L 178.81 300.56" stroke="#b7924e" stroke-width="1.00" stroke-opacity="0.666" stroke-linecap="round" stroke-linejoin="round"/>
<path d="M 384.92 384.92 L 344.46 344.46 L 314.84 314.84 L 325.68 325.68 L 366.14 366.14 L 395.77 395.77 L 384.92 384.92" stroke="#b7924e" stroke-width="1.00" stroke-opacity="0.676" stroke-linecap="round" stroke-linejoin="round"/>
<path d="M 186.32 325.68 L 197.16 314.84 L 167.54 344.46 L 127.08 384.92 L 116.23 395.77 L 145.86 366.14 L 186.32 325.68" stroke="#b7924e" stroke-width="1.00" stroke-opacity="0.676" stroke-linecap="round" stroke-linejoin="round"/>
<path d="M 341.03 403.27 L 311.41 351.97 L 296.59 326.31 L 311.41 351.97 L 341.03 403.27 L 355.84 428.93 L 341.03 403.27" stroke="#b7924e" stroke-width="1.00" stroke-opacity="0.685" stroke-linecap="round" stroke-linejoin="round"/>
<path d="M 200.59 351.97 L 215.41 326.31 L 200.59 351.97 L 170.97 403.27 L 156.16 428.93 L 170.97 403.27 L 200.59 351.97" stroke="#b7924e" stroke-width="1.00" stroke-opacity="0.685" stroke-linecap="round" stroke-linejoin="round"/>
<path d="M 296.32 406.46 L 281.50 351.18 L 277.54 336.37 L 288.38 376.84 L 303.19 432.11 L 307.16 446.93 L 296.32 406.46" stroke="#b7924e" stroke-width="1.00" stroke-opacity="0.690" stroke-linecap="round" stroke-linejoin="round"/>
<path d="M 223.62 376.84 L 234.46 336.37 L 230.50 351.18 L 215.68 406.46 L 204.84 446.93 L 208.81 432.11 L 223.62 376.84" stroke="#b7924e" stroke-width="1.00" stroke-opacity="0.690" stroke-linecap="round" stroke-linejoin="round"/>
<path d="M 256.00 396.43 L 256.00 345.13 L 256.00 345.13 L 256.00 396.43 L 256.00 447.74 L 256.00 447.74 L 256.00 396.43" stroke="#b7924e" stroke-width="1.00" stroke-opacity="0.691" stroke-linecap="round" stroke-linejoin="round"/>
<path d="M 366.81 256.00 L 368.13 258.94 L 369.38 261.94 L 370.57 265.02 L 371.70 268.16 L 372.75 271.37 L 373.73 274.65 L 374.64 277.99 L 375.46 281.39 L 376.19 284.86 L 376.84 288.38 L 377.39 291.96 L 377.85 295.59 L 378.20 299.27 L 378.45 303.01 L 378.60 306.78 L 378.64 310.60 L 378.56 314.46 L 378.37 318.35 L 378.05 322.27 L 377.62 326.22 L 377.06 330.19 L 376.38 334.17 L 375.57 338.18 L 374.62 342.19 L 373.55 346.20 L 372.34 350.21 L 371.00 354.22 L 369.52 358.21 L 367.90 362.19 L 366.14 366.14 L 364.25 370.07 L 362.22 373.97 L 360.05 377.83 L 357.74 381.64 L 355.29 385.40 L 352.71 389.11 L 349.99 392.76 L 347.14 396.34 L 344.15 399.84 L 341.03 403.27 L 337.78 406.62 L 334.40 409.88 L 330.91 413.04 L 327.28 416.11 L 323.54 419.07 L 319.69 421.91 L 315.72 424.65 L 311.65 427.26 L 307.47 429.75 L 303.19 432.11 L 298.82 434.34 L 294.35 436.43 L 289.80 438.38 L 285.17 440.18 L 280.47 441.83 L 275.69 443.33 L 270.85 444.68 L 265.95 445.86 L 261.00 446.88 L 256.00 447.74 L 250.96 448.43 L 245.89 448.96 L 240.79 449.31 L 235.66 449.49 L 230.53 449.50 L 225.38 449.33 L 220.23 448.99 L 215.09 448.48 L 209.96 447.79 L 204.84 446.93 L 199.75 445.89 L 194.70 444.68 L 189.68 443.29 L 184.70 441.74 L 179.78 440.01 L 174.91 438.12 L 170.11 436.06 L 165.38 433.84 L 160.73 431.46 L 156.16 428.93 L 151.68 426.24 L 147.29 423.40 L 143.00 420.41 L 138.82 417.28 L 134.75 414.01 L 130.80 410.61 L 126.96 407.08 L 123.25 403.43 L 119.68 399.66 L 116.23 395.77 L 112.93 391.77 L 109.76 387.67 L 106.75 383.47 L 103.88 379.19 L 101.16 374.81 L 98.60 370.36 L 96.19 365.83 L 93.95 361.24 L 91.87 356.58 L 89.95 351.87 L 88.19 347.11 L 86.60 342.31 L 85.18 337.48 L 83.92 332.61 L 82.83 327.73 L 81.91 322.83 L 81.15 317.92 L 80.57 313.00 L 80.14 308.09 L 79.89 303.19 L 79.79 298.30 L 79.86 293.44 L 80.08 288.60 L 80.47 283.80 L 81.01 279.04 L 81.70 274.32 L 82.54 269.65 L 83.53 265.04 L 84.67 260.49 L 85.94 256.00 L 87.35 251.58 L 88.90 247.24 L 90.57 242.98 L 92.37 238.80 L 94.29 234.71 L 96.32 230.71 L 98.47 226.80 L 100.73 223.00 L 103.08 219.29 L 105.54 215.68 L 108.09 212.19 L 110.72 208.80 L 113.44 205.52 L 116.24 202.35 L 119.11 199.30 L 122.05 196.36 L 125.05 193.54 L 128.11 190.84 L 131.22 188.25 L 134.38 185.78 L 137.58 183.43 L 140.82 181.20 L 144.10 179.09 L 147.40 177.09 L 150.72 175.22 L 154.06 173.45 L 157.42 171.81 L 160.79 170.27 L 164.16 168.85 L 167.54 167.54 L 170.91 166.34 L 174.28 165.24 L 177.64 164.25 L 180.98 163.36 L 184.31 162.57 L 187.62 161.88 L 190.90 161.28 L 194.16 160.78 L 197.39 160.36 L 200.59 160.03 L 203.76 159.79 L 206.89 159.62 L 209.99 159.53 L 213.04 159.52 L 216.06 159.58 L 219.03 159.70 L 221.97 159.89 L 224.85 160.14 L 227.70 160.45 L 230.50 160.82 L 233.25 161.23 L 235.96 161.70 L 238.62 162.21 L 241.23 162.77 L 243.80 163.37 L 246.33 164.00 L 248.81 164.67 L 251.25 165.38 L 253.65 166.11 L 256.00 166.87 L 258.31 167.66 L 260.59 168.47 L 262.82 169.31 L 265.02 170.16 L 267.19 171.03 L 269.32 171.92 L 271.41 172.83 L 273.48 173.75 L 275.52 174.68 L 277.54 175.63 L 279.52 176.59 L 281.49 177.55 L 283.43 178.53 L 285.36 179.52 L 287.26 180.52 L 289.15 181.53 L 291.03 182.56 L 292.90 183.59 L 294.75 184.63 L 296.59 185.69 L 298.43 186.76 L 300.26 187.84 L 302.09 188.94 L 303.91 190.05 L 305.73 191.19 L 307.55 192.34 L 309.37 193.51 L 311.19 194.70 L 313.01 195.92 L 314.84 197.16 L 316.66 198.43 L 318.49 199.73 L 320.32 201.07 L 322.15 202.43 L 323.99 203.83 L 325.83 205.27 L 327.67 206.75 L 329.51 208.26 L 331.35 209.83 L 333.19 211.44 L 335.02 213.09 L 336.86 214.80 L 338.68 216.56 L 340.51 218.38 L 342.32 220.25 L 344.12 222.17 L 345.91 224.16 L 347.69 226.21 L 349.45 228.32 L 351.18 230.50 L 352.90 232.74 L 354.59 235.04 L 356.25 237.42 L 357.88 239.86 L 359.47 242.38 L 361.03 244.96 L 362.55 247.61 L 364.02 250.34 L 365.44 253.13 L 366.81 256.00" stroke="#e3c887" stroke-width="3.20" stroke-opacity="0.774" stroke-linecap="round" stroke-linejoin="round"/>
<path d="M 426.06 256.00 L 427.33 260.49 L 428.47 265.04 L 429.46 269.65 L 430.30 274.32 L 430.99 279.04 L 431.53 283.80 L 431.92 288.60 L 432.14 293.44 L 432.21 298.30 L 432.11 303.19 L 431.86 308.09 L 431.43 313.00 L 430.85 317.92 L 430.09 322.83 L 429.17 327.73 L 428.08 332.61 L 426.82 337.48 L 425.40 342.31 L 423.81 347.11 L 422.05 351.87 L 420.13 356.58 L 418.05 361.24 L 415.81 365.83 L 413.40 370.36 L 410.84 374.81 L 408.12 379.19 L 405.25 383.47 L 402.24 387.67 L 399.07 391.77 L 395.77 395.77 L 392.32 399.66 L 388.75 403.43 L 385.04 407.08 L 381.20 410.61 L 377.25 414.01 L 373.18 417.28 L 369.00 420.41 L 364.71 423.40 L 360.32 426.24 L 355.84 428.93 L 351.27 431.46 L 346.62 433.84 L 341.89 436.06 L 337.09 438.12 L 332.22 440.01 L 327.30 441.74 L 322.32 443.29 L 317.30 444.68 L 312.25 445.89 L 307.16 446.93 L 302.04 447.79 L 296.91 448.48 L 291.77 448.99 L 286.62 449.33 L 281.47 449.50 L 276.34 449.49 L 271.21 449.31 L 266.11 448.96 L 261.04 448.43 L 256.00 447.74 L 251.00 446.88 L 246.05 445.86 L 241.15 444.68 L 236.31 443.33 L 231.53 441.83 L 226.83 440.18 L 222.20 438.38 L 217.65 436.43 L 213.18 434.34 L 208.81 432.11 L 204.53 429.75 L 200.35 427.26 L 196.28 424.65 L 192.31 421.91 L 188.46 419.07 L 184.72 416.11 L 181.09 413.04 L 177.60 409.88 L 174.22 406.62 L 170.97 403.27 L 167.85 399.84 L 164.86 396.34 L 162.01 392.76 L 159.29 389.11 L 156.71 385.40 L 154.26 381.64 L 151.95 377.83 L 149.78 373.97 L 147.75 370.07 L 145.86 366.14 L 144.10 362.19 L 142.48 358.21 L 141.00 354.22 L 139.66 350.21 L 138.45 346.20 L 137.38 342.19 L 136.43 338.18 L 135.62 334.17 L 134.94 330.19 L 134.38 326.22 L 133.95 322.27 L 133.63 318.35 L 133.44 314.46 L 133.36 310.60 L 133.40 306.78 L 133.55 303.01 L 133.80 299.27 L 134.15 295.59 L 134.61 291.96 L 135.16 288.38 L 135.81 284.86 L 136.54 281.39 L 137.36 277.99 L 138.27 274.65 L 139.25 271.37 L 140.30 268.16 L 141.43 265.02 L 142.62 261.94 L 143.87 258.94 L 145.19 256.00 L 146.56 253.13 L 147.98 250.34 L 149.45 247.61 L 150.97 244.96 L 152.53 242.38 L 154.12 239.86 L 155.75 237.42 L 157.41 235.04 L 159.10 232.74 L 160.82 230.50 L 162.55 228.32 L 164.31 226.21 L 166.09 224.16 L 167.88 222.17 L 169.68 220.25 L 171.49 218.38 L 173.32 216.56 L 175.14 214.80 L 176.98 213.09 L 178.81 211.44 L 180.65 209.83 L 182.49 208.26 L 184.33 206.75 L 186.17 205.27 L 188.01 203.83 L 189.85 202.43 L 191.68 201.07 L 193.51 199.73 L 195.34 198.43 L 197.16 197.16 L 198.99 195.92 L 200.81 194.70 L 202.63 193.51 L 204.45 192.34 L 206.27 191.19 L 208.09 190.05 L 209.91 188.94 L 211.74 187.84 L 213.57 186.76 L 215.41 185.69 L 217.25 184.63 L 219.10 183.59 L 220.97 182.56 L 222.85 181.53 L 224.74 180.52 L 226.64 179.52 L 228.57 178.53 L 230.51 177.55 L 232.48 176.59 L 234.46 175.63 L 236.48 174.68 L 238.52 173.75 L 240.59 172.83 L 242.68 171.92 L 244.81 171.03 L 246.98 170.16 L 249.18 169.31 L 251.41 168.47 L 253.69 167.66 L 256.00 166.87 L 258.35 166.11 L 260.75 165.38 L 263.19 164.67 L 265.67 164.00 L 268.20 163.37 L 270.77 162.77 L 273.38 162.21 L 276.04 161.70 L 278.75 161.23 L 281.50 160.82 L 284.30 160.45 L 287.15 160.14 L 290.03 159.89 L 292.97 159.70 L 295.94 159.58 L 298.96 159.52 L 302.01 159.53 L 305.11 159.62 L 308.24 159.79 L 311.41 160.03 L 314.61 160.36 L 317.84 160.78 L 321.10 161.28 L 324.38 161.88 L 327.69 162.57 L 331.02 163.36 L 334.36 164.25 L 337.72 165.24 L 341.09 166.34 L 344.46 167.54 L 347.84 168.85 L 351.21 170.27 L 354.58 171.81 L 357.94 173.45 L 361.28 175.22 L 364.60 177.09 L 367.90 179.09 L 371.18 181.20 L 374.42 183.43 L 377.62 185.78 L 380.78 188.25 L 383.89 190.84 L 386.95 193.54 L 389.95 196.36 L 392.89 199.30 L 395.76 202.35 L 398.56 205.52 L 401.28 208.80 L 403.91 212.19 L 406.46 215.68 L 408.92 219.29 L 411.27 223.00 L 413.53 226.80 L 415.68 230.71 L 417.71 234.71 L 419.63 238.80 L 421.43 242.98 L 423.10 247.24 L 424.65 251.58 L 426.06 256.00" stroke="#e3c887" stroke-width="3.20" stroke-opacity="0.774" stroke-linecap="round" stroke-linejoin="round"/>
<path d="M 455.68 256.00 L 455.59 261.23 L 455.33 266.45 L 454.88 271.65 L 454.26 276.84 L 453.47 282.00 L 452.50 287.12 L 451.36 292.21 L 450.05 297.25 L 448.57 302.23 L 446.93 307.16 L 445.12 312.02 L 443.15 316.81 L 441.02 321.52 L 438.74 326.15 L 436.31 330.69 L 433.74 335.13 L 431.02 339.48 L 428.16 343.72 L 425.17 347.85 L 422.05 351.87 L 418.81 355.77 L 415.45 359.55 L 411.97 363.20 L 408.39 366.72 L 404.70 370.10 L 400.92 373.35 L 397.04 376.46 L 393.08 379.43 L 389.04 382.25 L 384.92 384.92 L 380.74 387.45 L 376.50 389.82 L 372.19 392.05 L 367.84 394.11 L 363.45 396.03 L 359.01 397.79 L 354.55 399.39 L 350.06 400.84 L 345.55 402.13 L 341.03 403.27 L 336.50 404.26 L 331.97 405.09 L 327.44 405.78 L 322.92 406.31 L 318.42 406.69 L 313.94 406.93 L 309.48 407.02 L 305.05 406.97 L 300.66 406.78 L 296.32 406.46 L 292.01 406.00 L 287.76 405.41 L 283.56 404.70 L 279.42 403.86 L 275.34 402.90 L 271.33 401.82 L 267.38 400.64 L 263.51 399.34 L 259.72 397.94 L 256.00 396.43 L 252.36 394.84 L 248.81 393.15 L 245.35 391.37 L 241.97 389.51 L 238.68 387.57 L 235.48 385.55 L 232.38 383.47 L 229.36 381.32 L 226.44 379.11 L 223.62 376.84 L 220.89 374.52 L 218.26 372.15 L 215.72 369.74 L 213.28 367.29 L 210.93 364.80 L 208.68 362.28 L 206.52 359.73 L 204.46 357.16 L 202.48 354.57 L 200.59 351.97 L 198.80 349.35 L 197.09 346.72 L 195.46 344.08 L 193.92 341.44 L 192.46 338.80 L 191.09 336.16 L 189.78 333.53 L 188.56 330.90 L 187.40 328.29 L 186.32 325.68 L 185.31 323.09 L 184.36 320.51 L 183.47 317.95 L 182.64 315.40 L 181.88 312.88 L 181.16 310.37 L 180.50 307.89 L 179.89 305.42 L 179.33 302.98 L 178.81 300.56 L 178.34 298.17 L 177.91 295.79 L 177.51 293.44 L 177.15 291.11 L 176.83 288.80 L 176.53 286.51 L 176.26 284.24 L 176.03 281.98 L 175.82 279.75 L 175.63 277.54 L 175.46 275.34 L 175.32 273.15 L 175.20 270.98 L 175.09 268.81 L 175.00 266.66 L 174.93 264.52 L 174.88 262.38 L 174.84 260.25 L 174.82 258.13 L 174.81 256.00 L 174.82 253.87 L 174.84 251.75 L 174.88 249.62 L 174.93 247.48 L 175.00 245.34 L 175.09 243.19 L 175.20 241.02 L 175.32 238.85 L 175.46 236.66 L 175.63 234.46 L 175.82 232.25 L 176.03 230.02 L 176.26 227.76 L 176.53 225.49 L 176.83 223.20 L 177.15 220.89 L 177.51 218.56 L 177.91 216.21 L 178.34 213.83 L 178.81 211.44 L 179.33 209.02 L 179.89 206.58 L 180.50 204.11 L 181.16 201.63 L 181.88 199.12 L 182.64 196.60 L 183.47 194.05 L 184.36 191.49 L 185.31 188.91 L 186.32 186.32 L 187.40 183.71 L 188.56 181.10 L 189.78 178.47 L 191.09 175.84 L 192.46 173.20 L 193.92 170.56 L 195.46 167.92 L 197.09 165.28 L 198.80 162.65 L 200.59 160.03 L 202.48 157.43 L 204.46 154.84 L 206.52 152.27 L 208.68 149.72 L 210.93 147.20 L 213.28 144.71 L 215.72 142.26 L 218.26 139.85 L 220.89 137.48 L 223.62 135.16 L 226.44 132.89 L 229.36 130.68 L 232.38 128.53 L 235.48 126.45 L 238.68 124.43 L 241.97 122.49 L 245.35 120.63 L 248.81 118.85 L 252.36 117.16 L 256.00 115.57 L 259.72 114.06 L 263.51 112.66 L 267.38 111.36 L 271.33 110.18 L 275.34 109.10 L 279.42 108.14 L 283.56 107.30 L 287.76 106.59 L 292.01 106.00 L 296.32 105.54 L 300.66 105.22 L 305.05 105.03 L 309.48 104.98 L 313.94 105.07 L 318.42 105.31 L 322.92 105.69 L 327.44 106.22 L 331.97 106.91 L 336.50 107.74 L 341.03 108.73 L 345.55 109.87 L 350.06 111.16 L 354.55 112.61 L 359.01 114.21 L 363.45 115.97 L 367.84 117.89 L 372.19 119.95 L 376.50 122.18 L 380.74 124.55 L 384.92 127.08 L 389.04 129.75 L 393.08 132.57 L 397.04 135.54 L 400.92 138.65 L 404.70 141.90 L 408.39 145.28 L 411.97 148.80 L 415.45 152.45 L 418.81 156.23 L 422.05 160.13 L 425.17 164.15 L 428.16 168.28 L 431.02 172.52 L 433.74 176.87 L 436.31 181.31 L 438.74 185.85 L 441.02 190.48 L 443.15 195.19 L 445.12 199.98 L 446.93 204.84 L 448.57 209.77 L 450.05 214.75 L 451.36 219.79 L 452.50 224.88 L 453.47 230.00 L 454.26 235.16 L 454.88 240.35 L 455.33 245.55 L 455.59 250.77 L 455.68 256.00" stroke="#e3c887" stroke-width="3.20" stroke-opacity="0.775" stroke-linecap="round" stroke-linejoin="round"/>
<path d="M 337.19 256.00 L 337.18 258.13 L 337.16 260.25 L 337.12 262.38 L 337.07 264.52 L 337.00 266.66 L 336.91 268.81 L 336.80 270.98 L 336.68 273.15 L 336.54 275.34 L 336.37 277.54 L 336.18 279.75 L 335.97 281.98 L 335.74 284.24 L 335.47 286.51 L 335.17 288.80 L 334.85 291.11 L 334.49 293.44 L 334.09 295.79 L 333.66 298.17 L 333.19 300.56 L 332.67 302.98 L 332.11 305.42 L 331.50 307.89 L 330.84 310.37 L 330.12 312.88 L 329.36 315.40 L 328.53 317.95 L 327.64 320.51 L 326.69 323.09 L 325.68 325.68 L 324.60 328.29 L 323.44 330.90 L 322.22 333.53 L 320.91 336.16 L 319.54 338.80 L 318.08 341.44 L 316.54 344.08 L 314.91 346.72 L 313.20 349.35 L 311.41 351.97 L 309.52 354.57 L 307.54 357.16 L 305.48 359.73 L 303.32 362.28 L 301.07 364.80 L 298.72 367.29 L 296.28 369.74 L 293.74 372.15 L 291.11 374.52 L 288.38 376.84 L 285.56 379.11 L 282.64 381.32 L 279.62 383.47 L 276.52 385.55 L 273.32 387.57 L 270.03 389.51 L 266.65 391.37 L 263.19 393.15 L 259.64 394.84 L 256.00 396.43 L 252.28 397.94 L 248.49 399.34 L 244.62 400.64 L 240.67 401.82 L 236.66 402.90 L 232.58 403.86 L 228.44 404.70 L 224.24 405.41 L 219.99 406.00 L 215.68 406.46 L 211.34 406.78 L 206.95 406.97 L 202.52 407.02 L 198.06 406.93 L 193.58 406.69 L 189.08 406.31 L 184.56 405.78 L 180.03 405.09 L 175.50 404.26 L 170.97 403.27 L 166.45 402.13 L 161.94 400.84 L 157.45 399.39 L 152.99 397.79 L 148.55 396.03 L 144.16 394.11 L 139.81 392.05 L 135.50 389.82 L 131.26 387.45 L 127.08 384.92 L 122.96 382.25 L 118.92 379.43 L 114.96 376.46 L 111.08 373.35 L 107.30 370.10 L 103.61 366.72 L 100.03 363.20 L 96.55 359.55 L 93.19 355.77 L 89.95 351.87 L 86.83 347.85 L 83.84 343.72 L 80.98 339.48 L 78.26 335.13 L 75.69 330.69 L 73.26 326.15 L 70.98 321.52 L 68.85 316.81 L 66.88 312.02 L 65.07 307.16 L 63.43 302.23 L 61.95 297.25 L 60.64 292.21 L 59.50 287.12 L 58.53 282.00 L 57.74 276.84 L 57.12 271.65 L 56.67 266.45 L 56.41 261.23 L 56.32 256.00 L 56.41 250.77 L 56.67 245.55 L 57.12 240.35 L 57.74 235.16 L 58.53 230.00 L 59.50 224.88 L 60.64 219.79 L 61.95 214.75 L 63.43 209.77 L 65.07 204.84 L 66.88 199.98 L 68.85 195.19 L 70.98 190.48 L 73.26 185.85 L 75.69 181.31 L 78.26 176.87 L 80.98 172.52 L 83.84 168.28 L 86.83 164.15 L 89.95 160.13 L 93.19 156.23 L 96.55 152.45 L 100.03 148.80 L 103.61 145.28 L 107.30 141.90 L 111.08 138.65 L 114.96 135.54 L 118.92 132.57 L 122.96 129.75 L 127.08 127.08 L 131.26 124.55 L 135.50 122.18 L 139.81 119.95 L 144.16 117.89 L 148.55 115.97 L 152.99 114.21 L 157.45 112.61 L 161.94 111.16 L 166.45 109.87 L 170.97 108.73 L 175.50 107.74 L 180.03 106.91 L 184.56 106.22 L 189.08 105.69 L 193.58 105.31 L 198.06 105.07 L 202.52 104.98 L 206.95 105.03 L 211.34 105.22 L 215.68 105.54 L 219.99 106.00 L 224.24 106.59 L 228.44 107.30 L 232.58 108.14 L 236.66 109.10 L 240.67 110.18 L 244.62 111.36 L 248.49 112.66 L 252.28 114.06 L 256.00 115.57 L 259.64 117.16 L 263.19 118.85 L 266.65 120.63 L 270.03 122.49 L 273.32 124.43 L 276.52 126.45 L 279.62 128.53 L 282.64 130.68 L 285.56 132.89 L 288.38 135.16 L 291.11 137.48 L 293.74 139.85 L 296.28 142.26 L 298.72 144.71 L 301.07 147.20 L 303.32 149.72 L 305.48 152.27 L 307.54 154.84 L 309.52 157.43 L 311.41 160.03 L 313.20 162.65 L 314.91 165.28 L 316.54 167.92 L 318.08 170.56 L 319.54 173.20 L 320.91 175.84 L 322.22 178.47 L 323.44 181.10 L 324.60 183.71 L 325.68 186.32 L 326.69 188.91 L 327.64 191.49 L 328.53 194.05 L 329.36 196.60 L 330.12 199.12 L 330.84 201.63 L 331.50 204.11 L 332.11 206.58 L 332.67 209.02 L 333.19 211.44 L 333.66 213.83 L 334.09 216.21 L 334.49 218.56 L 334.85 220.89 L 335.17 223.20 L 335.47 225.49 L 335.74 227.76 L 335.97 230.02 L 336.18 232.25 L 336.37 234.46 L 336.54 236.66 L 336.68 238.85 L 336.80 241.02 L 336.91 243.19 L 337.00 245.34 L 337.07 247.48 L 337.12 249.62 L 337.16 251.75 L 337.18 253.87 L 337.19 256.00" stroke="#e3c887" stroke-width="3.20" stroke-opacity="0.775" stroke-linecap="round" stroke-linejoin="round"/>
<path d="M 426.06 256.00 L 424.65 260.42 L 423.10 264.76 L 421.43 269.02 L 419.63 273.20 L 417.71 277.29 L 415.68 281.29 L 413.53 285.20 L 411.27 289.00 L 408.92 292.71 L 406.46 296.32 L 403.91 299.81 L 401.28 303.20 L 398.56 306.48 L 395.76 309.65 L 392.89 312.70 L 389.95 315.64 L 386.95 318.46 L 383.89 321.16 L 380.78 323.75 L 377.62 326.22 L 374.42 328.57 L 371.18 330.80 L 367.90 332.91 L 364.60 334.91 L 361.28 336.78 L 357.94 338.55 L 354.58 340.19 L 351.21 341.73 L 347.84 343.15 L 344.46 344.46 L 341.09 345.66 L 337.72 346.76 L 334.36 347.75 L 331.02 348.64 L 327.69 349.43 L 324.38 350.12 L 321.10 350.72 L 317.84 351.22 L 314.61 351.64 L 311.41 351.97 L 308.24 352.21 L 305.11 352.38 L 302.01 352.47 L 298.96 352.48 L 295.94 352.42 L 292.97 352.30 L 290.03 352.11 L 287.15 351.86 L 284.30 351.55 L 281.50 351.18 L 278.75 350.77 L 276.04 350.30 L 273.38 349.79 L 270.77 349.23 L 268.20 348.63 L 265.67 348.00 L 263.19 347.33 L 260.75 346.62 L 258.35 345.89 L 256.00 345.13 L 253.69 344.34 L 251.41 343.53 L 249.18 342.69 L 246.98 341.84 L 244.81 340.97 L 242.68 340.08 L 240.59 339.17 L 238.52 338.25 L 236.48 337.32 L 234.46 336.37 L 232.48 335.41 L 230.51 334.45 L 228.57 333.47 L 226.64 332.48 L 224.74 331.48 L 222.85 330.47 L 220.97 329.44 L 219.10 328.41 L 217.25 327.37 L 215.41 326.31 L 213.57 325.24 L 211.74 324.16 L 209.91 323.06 L 208.09 321.95 L 206.27 320.81 L 204.45 319.66 L 202.63 318.49 L 200.81 317.30 L 198.99 316.08 L 197.16 314.84 L 195.34 313.57 L 193.51 312.27 L 191.68 310.93 L 189.85 309.57 L 188.01 308.17 L 186.17 306.73 L 184.33 305.25 L 182.49 303.74 L 180.65 302.17 L 178.81 300.56 L 176.98 298.91 L 175.14 297.20 L 173.32 295.44 L 171.49 293.62 L 169.68 291.75 L 167.88 289.83 L 166.09 287.84 L 164.31 285.79 L 162.55 283.68 L 160.82 281.50 L 159.10 279.26 L 157.41 276.96 L 155.75 274.58 L 154.12 272.14 L 152.53 269.62 L 150.97 267.04 L 149.45 264.39 L 147.98 261.66 L 146.56 258.87 L 145.19 256.00 L 143.87 253.06 L 142.62 250.06 L 141.43 246.98 L 140.30 243.84 L 139.25 240.63 L 138.27 237.35 L 137.36 234.01 L 136.54 230.61 L 135.81 227.14 L 135.16 223.62 L 134.61 220.04 L 134.15 216.41 L 133.80 212.73 L 133.55 208.99 L 133.40 205.22 L 133.36 201.40 L 133.44 197.54 L 133.63 193.65 L 133.95 189.73 L 134.38 185.78 L 134.94 181.81 L 135.62 177.83 L 136.43 173.82 L 137.38 169.81 L 138.45 165.80 L 139.66 161.79 L 141.00 157.78 L 142.48 153.79 L 144.10 149.81 L 145.86 145.86 L 147.75 141.93 L 149.78 138.03 L 151.95 134.17 L 154.26 130.36 L 156.71 126.60 L 159.29 122.89 L 162.01 119.24 L 164.86 115.66 L 167.85 112.16 L 170.97 108.73 L 174.22 105.38 L 177.60 102.12 L 181.09 98.96 L 184.72 95.89 L 188.46 92.93 L 192.31 90.09 L 196.28 87.35 L 200.35 84.74 L 204.53 82.25 L 208.81 79.89 L 213.18 77.66 L 217.65 75.57 L 222.20 73.62 L 226.83 71.82 L 231.53 70.17 L 236.31 68.67 L 241.15 67.32 L 246.05 66.14 L 251.00 65.12 L 256.00 64.26 L 261.04 63.57 L 266.11 63.04 L 271.21 62.69 L 276.34 62.51 L 281.47 62.50 L 286.62 62.67 L 291.77 63.01 L 296.91 63.52 L 302.04 64.21 L 307.16 65.07 L 312.25 66.11 L 317.30 67.32 L 322.32 68.71 L 327.30 70.26 L 332.22 71.99 L 337.09 73.88 L 341.89 75.94 L 346.62 78.16 L 351.27 80.54 L 355.84 83.07 L 360.32 85.76 L 364.71 88.60 L 369.00 91.59 L 373.18 94.72 L 377.25 97.99 L 381.20 101.39 L 385.04 104.92 L 388.75 108.57 L 392.32 112.34 L 395.77 116.23 L 399.07 120.23 L 402.24 124.33 L 405.25 128.53 L 408.12 132.81 L 410.84 137.19 L 413.40 141.64 L 415.81 146.17 L 418.05 150.76 L 420.13 155.42 L 422.05 160.13 L 423.81 164.89 L 425.40 169.69 L 426.82 174.52 L 428.08 179.39 L 429.17 184.27 L 430.09 189.17 L 430.85 194.08 L 431.43 199.00 L 431.86 203.91 L 432.11 208.81 L 432.21 213.70 L 432.14 218.56 L 431.92 223.40 L 431.53 228.20 L 430.99 232.96 L 430.30 237.68 L 429.46 242.35 L 428.47 246.96 L 427.33 251.51 L 426.06 256.00" stroke="#e3c887" stroke-width="3.20" stroke-opacity="0.776" stroke-linecap="round" stroke-linejoin="round"/>
<path d="M 366.81 256.00 L 365.44 258.87 L 364.02 261.66 L 362.55 264.39 L 361.03 267.04 L 359.47 269.62 L 357.88 272.14 L 356.25 274.58 L 354.59 276.96 L 352.90 279.26 L 351.18 281.50 L 349.45 283.68 L 347.69 285.79 L 345.91 287.84 L 344.12 289.83 L 342.32 291.75 L 340.51 293.62 L 338.68 295.44 L 336.86 297.20 L 335.02 298.91 L 333.19 300.56 L 331.35 302.17 L 329.51 303.74 L 327.67 305.25 L 325.83 306.73 L 323.99 308.17 L 322.15 309.57 L 320.32 310.93 L 318.49 312.27 L 316.66 313.57 L 314.84 314.84 L 313.01 316.08 L 311.19 317.30 L 309.37 318.49 L 307.55 319.66 L 305.73 320.81 L 303.91 321.95 L 302.09 323.06 L 300.26 324.16 L 298.43 325.24 L 296.59 326.31 L 294.75 327.37 L 292.90 328.41 L 291.03 329.44 L 289.15 330.47 L 287.26 331.48 L 285.36 332.48 L 283.43 333.47 L 281.49 334.45 L 279.52 335.41 L 277.54 336.37 L 275.52 337.32 L 273.48 338.25 L 271.41 339.17 L 269.32 340.08 L 267.19 340.97 L 265.02 341.84 L 262.82 342.69 L 260.59 343.53 L 258.31 344.34 L 256.00 345.13 L 253.65 345.89 L 251.25 346.62 L 248.81 347.33 L 246.33 348.00 L 243.80 348.63 L 241.23 349.23 L 238.62 349.79 L 235.96 350.30 L 233.25 350.77 L 230.50 351.18 L 227.70 351.55 L 224.85 351.86 L 221.97 352.11 L 219.03 352.30 L 216.06 352.42 L 213.04 352.48 L 209.99 352.47 L 206.89 352.38 L 203.76 352.21 L 200.59 351.97 L 197.39 351.64 L 194.16 351.22 L 190.90 350.72 L 187.62 350.12 L 184.31 349.43 L 180.98 348.64 L 177.64 347.75 L 174.28 346.76 L 170.91 345.66 L 167.54 344.46 L 164.16 343.15 L 160.79 341.73 L 157.42 340.19 L 154.06 338.55 L 150.72 336.78 L 147.40 334.91 L 144.10 332.91 L 140.82 330.80 L 137.58 328.57 L 134.38 326.22 L 131.22 323.75 L 128.11 321.16 L 125.05 318.46 L 122.05 315.64 L 119.11 312.70 L 116.24 309.65 L 113.44 306.48 L 110.72 303.20 L 108.09 299.81 L 105.54 296.32 L 103.08 292.71 L 100.73 289.00 L 98.47 285.20 L 96.32 281.29 L 94.29 277.29 L 92.37 273.20 L 90.57 269.02 L 88.90 264.76 L 87.35 260.42 L 85.94 256.00 L 84.67 251.51 L 83.53 246.96 L 82.54 242.35 L 81.70 237.68 L 81.01 232.96 L 80.47 228.20 L 80.08 223.40 L 79.86 218.56 L 79.79 213.70 L 79.89 208.81 L 80.14 203.91 L 80.57 199.00 L 81.15 194.08 L 81.91 189.17 L 82.83 184.27 L 83.92 179.39 L 85.18 174.52 L 86.60 169.69 L 88.19 164.89 L 89.95 160.13 L 91.87 155.42 L 93.95 150.76 L 96.19 146.17 L 98.60 141.64 L 101.16 137.19 L 103.88 132.81 L 106.75 128.53 L 109.76 124.33 L 112.93 120.23 L 116.23 116.23 L 119.68 112.34 L 123.25 108.57 L 126.96 104.92 L 130.80 101.39 L 134.75 97.99 L 138.82 94.72 L 143.00 91.59 L 147.29 88.60 L 151.68 85.76 L 156.16 83.07 L 160.73 80.54 L 165.38 78.16 L 170.11 75.94 L 174.91 73.88 L 179.78 71.99 L 184.70 70.26 L 189.68 68.71 L 194.70 67.32 L 199.75 66.11 L 204.84 65.07 L 209.96 64.21 L 215.09 63.52 L 220.23 63.01 L 225.38 62.67 L 230.53 62.50 L 235.66 62.51 L 240.79 62.69 L 245.89 63.04 L 250.96 63.57 L 256.00 64.26 L 261.00 65.12 L 265.95 66.14 L 270.85 67.32 L 275.69 68.67 L 280.47 70.17 L 285.17 71.82 L 289.80 73.62 L 294.35 75.57 L 298.82 77.66 L 303.19 79.89 L 307.47 82.25 L 311.65 84.74 L 315.72 87.35 L 319.69 90.09 L 323.54 92.93 L 327.28 95.89 L 330.91 98.96 L 334.40 102.12 L 337.78 105.38 L 341.03 108.73 L 344.15 112.16 L 347.14 115.66 L 349.99 119.24 L 352.71 122.89 L 355.29 126.60 L 357.74 130.36 L 360.05 134.17 L 362.22 138.03 L 364.25 141.93 L 366.14 145.86 L 367.90 149.81 L 369.52 153.79 L 371.00 157.78 L 372.34 161.79 L 373.55 165.80 L 374.62 169.81 L 375.57 173.82 L 376.38 177.83 L 377.06 181.81 L 377.62 185.78 L 378.05 189.73 L 378.37 193.65 L 378.56 197.54 L 378.64 201.40 L 378.60 205.22 L 378.45 208.99 L 378.20 212.73 L 377.85 216.41 L 377.39 220.04 L 376.84 223.62 L 376.19 227.14 L 375.46 230.61 L 374.64 234.01 L 373.73 237.35 L 372.75 240.63 L 371.70 243.84 L 370.57 246.98 L 369.38 250.06 L 368.13 253.06 L 366.81 256.00" stroke="#e3c887" stroke-width="3.20" stroke-opacity="0.776" stroke-linecap="round" stroke-linejoin="round"/>
</svg>