<svg xmlns="http://www.w3.org/2000/svg" viewBox="0 0 512 512" fill="none">
<path d="M 256.00 115.57 L 256.00 64.26 L 256.00 64.26 L 256.00 115.57 L 256.00 166.87 L 256.00 166.87 L 256.00 115.57" stroke="currentColor" stroke-width="2.20" stroke-opacity="0.686" stroke-linecap="round" stroke-linejoin="round"/>
<path d="M 200.59 160.03 L 170.97 108.73 L 156.16 83.07 L 170.97 108.73 L 200.59 160.03 L 215.41 185.69 L 200.59 160.03" stroke="currentColor" stroke-width="2.20" stroke-opacity="0.691" stroke-linecap="round" stroke-linejoin="round"/>
<path d="M 341.03 108.73 L 355.84 83.07 L 341.03 108.73 L 311.41 160.03 L 296.59 185.69 L 311.41 160.03 L 341.03 108.73" stroke="currentColor" stroke-width="2.20" stroke-opacity="0.691" stroke-linecap="round" stroke-linejoin="round"/>
<path d="M 178.81 211.44 L 134.38 185.78 L 89.95 160.13 L 89.95 160.13 L 134.38 185.78 L 178.81 211.44 L 178.81 211.44" stroke="currentColor" stroke-width="2.20" stroke-opacity="0.705" stroke-linecap="round" stroke-linejoin="round"/>
<path d="M 422.05 160.13 L 422.05 160.13 L 377.62 185.78 L 333.19 211.44 L 333.19 211.44 L 377.62 185.78 L 422.05 160.13" stroke="currentColor" stroke-width="2.20" stroke-opacity="0.705" stroke-linecap="round" stroke-linejoin="round"/>
<path d="M 455.68 256.00 L 426.06 256.00 L 366.81 256.00 L 337.19 256.00 L 366.81 256.00 L 426.06 256.00 L 455.68 256.00" stroke="currentColor" stroke-width="2.20" stroke-opacity="0.725" stroke-linecap="round" stroke-linejoin="round"/>
<path d="M 174.81 256.00 L 145.19 256.00 L 85.94 256.00 L 56.32 256.00 L 85.94 256.00 L 145.19 256.00 L 174.81 256.00" stroke="currentColor" stroke-width="2.20" stroke-opacity="0.725" stroke-linecap="round" stroke-linejoin="round"/>
<path d="M 422.05 351.87 L 377.62 326.22 L 333.19 300.56 L 333.19 300.56 L 377.62 326.22 L 422.05 351.87 L 422.05 351.87" stroke="currentColor" stroke-width="2.20" stroke-opacity="0.745" stroke-linecap="round" stroke-linejoin="round"/>
<path d="M 178.81 300.56 L 178.81 300.56 L 134.38 326.22 L 89.95 351.87 L 89.95 351.87 L 134.38 326.22 L 178.81 300.56" stroke="currentColor" stroke-width="2.20" stroke-opacity="0.745" stroke-linecap="round" stroke-linejoin="round"/>
<path d="M 341.03 403.27 L 311.41 351.97 L 296.59 326.31 L 311.41 351.97 L 341.03 403.27 L 355.84 428.93 L 341.03 403.27" stroke="currentColor" stroke-width="2.20" stroke-opacity="0.759" stroke-linecap="round" stroke-linejoin="round"/>
<path d="M 200.59 351.97 L 215.41 326.31 L 200.59 351.97 L 170.97 403.27 L 156.16 428.93 L 170.97 403.27 L 200.59 351.97" stroke="currentColor" stroke-width="2.20" stroke-opacity="0.759" stroke-linecap="round" stroke-linejoin="round"/>
<path d="M 256.00 396.43 L 256.00 345.13 L 256.00 345.13 L 256.00 396.43 L 256.00 447.74 L 256.00 447.74 L 256.00 396.43" stroke="currentColor" stroke-width="2.20" stroke-opacity="0.764" stroke-linecap="round" stroke-linejoin="round"/>
<path d="M 366.81 256.00 L 368.55 259.93 L 370.18 263.98 L 371.70 268.16 L 373.09 272.46 L 374.35 276.87 L 375.46 281.39 L 376.42 286.02 L 377.22 290.76 L 377.85 295.59 L 378.30 300.51 L 378.56 305.52 L 378.64 310.60 L 378.51 315.75 L 378.17 320.96 L 377.62 326.22 L 376.85 331.51 L 375.85 336.84 L 374.62 342.19 L 373.16 347.54 L 371.46 352.88 L 369.52 358.21 L 367.33 363.51 L 364.90 368.77 L 362.22 373.97 L 359.29 379.10 L 356.12 384.15 L 352.71 389.11 L 349.05 393.96 L 345.16 398.68 L 341.03 403.27 L 336.67 407.72 L 332.09 412.00 L 327.28 416.11 L 322.27 420.03 L 317.06 423.75 L 311.65 427.26 L 306.05 430.56 L 300.28 433.61 L 294.35 436.43 L 288.27 439.00 L 282.04 441.30 L 275.69 443.33 L 269.22 445.09 L 262.65 446.56 L 256.00 447.74 L 249.27 448.63 L 242.49 449.21 L 235.66 449.49 L 228.81 449.46 L 221.95 449.13 L 215.09 448.48 L 208.25 447.52 L 201.45 446.25 L 194.70 444.68 L 188.01 442.79 L 181.41 440.61 L 174.91 438.12 L 168.53 435.34 L 162.27 432.28 L 156.16 428.93 L 150.20 425.31 L 144.42 421.42 L 138.82 417.28 L 133.42 412.90 L 128.23 408.27 L 123.25 403.43 L 118.51 398.37 L 114.01 393.12 L 109.76 387.67 L 105.77 382.06 L 102.05 376.28 L 98.60 370.36 L 95.43 364.31 L 92.54 358.14 L 89.95 351.87 L 87.64 345.52 L 85.63 339.09 L 83.92 332.61 L 82.50 326.10 L 81.39 319.55 L 80.57 313.00 L 80.04 306.46 L 79.80 299.93 L 79.86 293.44 L 80.20 287.00 L 80.81 280.62 L 81.70 274.32 L 82.86 268.11 L 84.27 262.00 L 85.94 256.00 L 87.85 250.13 L 90.00 244.39 L 92.37 238.80 L 94.95 233.37 L 97.74 228.10 L 100.73 223.00 L 103.89 218.08 L 107.23 213.34 L 110.72 208.80 L 114.37 204.45 L 118.15 200.30 L 122.05 196.36 L 126.06 192.63 L 130.18 189.10 L 134.38 185.78 L 138.66 182.68 L 143.00 179.78 L 147.40 177.09 L 151.83 174.62 L 156.30 172.34 L 160.79 170.27 L 165.29 168.40 L 169.79 166.73 L 174.28 165.24 L 178.76 163.94 L 183.20 162.83 L 187.62 161.88 L 191.99 161.11 L 196.32 160.49 L 200.59 160.03 L 204.81 159.72 L 208.96 159.56 L 213.04 159.52 L 217.06 159.61 L 220.99 159.82 L 224.85 160.14 L 228.64 160.57 L 232.34 161.09 L 235.96 161.70 L 239.49 162.39 L 242.95 163.16 L 246.33 164.00 L 249.63 164.91 L 252.85 165.86 L 256.00 166.87 L 259.08 167.93 L 262.08 169.03 L 265.02 170.16 L 267.90 171.33 L 270.72 172.53 L 273.48 173.75 L 276.20 175.00 L 278.86 176.26 L 281.49 177.55 L 284.08 178.86 L 286.63 180.19 L 289.15 181.53 L 291.65 182.90 L 294.13 184.28 L 296.59 185.69 L 299.04 187.12 L 301.48 188.57 L 303.91 190.05 L 306.34 191.57 L 308.77 193.12 L 311.19 194.70 L 313.62 196.33 L 316.05 198.01 L 318.49 199.73 L 320.93 201.52 L 323.38 203.36 L 325.83 205.27 L 328.28 207.25 L 330.73 209.30 L 333.19 211.44 L 335.63 213.66 L 338.08 215.97 L 340.51 218.38 L 342.92 220.88 L 345.32 223.49 L 347.69 226.21 L 350.03 229.04 L 352.33 231.98 L 354.59 235.04 L 356.80 238.23 L 358.95 241.53 L 361.03 244.96 L 363.04 248.51 L 364.97 252.19 L 366.81 256.00" stroke="currentColor" stroke-width="5.00" stroke-opacity="0.774" stroke-linecap="round" stroke-linejoin="round"/>
<path d="M 426.06 256.00 L 427.73 262.00 L 429.14 268.11 L 430.30 274.32 L 431.19 280.62 L 431.80 287.00 L 432.14 293.44 L 432.20 299.93 L 431.96 306.46 L 431.43 313.00 L 430.61 319.55 L 429.50 326.10 L 428.08 332.61 L 426.37 339.09 L 424.36 345.52 L 422.05 351.87 L 419.46 358.14 L 416.57 364.31 L 413.40 370.36 L 409.95 376.28 L 406.23 382.06 L 402.24 387.67 L 397.99 393.12 L 393.49 398.37 L 388.75 403.43 L 383.77 408.27 L 378.58 412.90 L 373.18 417.28 L 367.58 421.42 L 361.80 425.31 L 355.84 428.93 L 349.73 432.28 L 343.47 435.34 L 337.09 438.12 L 330.59 440.61 L 323.99 442.79 L 317.30 444.68 L 310.55 446.25 L 303.75 447.52 L 296.91 448.48 L 290.05 449.13 L 283.19 449.46 L 276.34 449.49 L 269.51 449.21 L 262.73 448.63 L 256.00 447.74 L 249.35 446.56 L 242.78 445.09 L 236.31 443.33 L 229.96 441.30 L 223.73 439.00 L 217.65 436.43 L 211.72 433.61 L 205.95 430.56 L 200.35 427.26 L 194.94 423.75 L 189.73 420.03 L 184.72 416.11 L 179.91 412.00 L 175.33 407.72 L 170.97 403.27 L 166.84 398.68 L 162.95 393.96 L 159.29 389.11 L 155.88 384.15 L 152.71 379.10 L 149.78 373.97 L 147.10 368.77 L 144.67 363.51 L 142.48 358.21 L 140.54 352.88 L 138.84 347.54 L 137.38 342.19 L 136.15 336.84 L 135.15 331.51 L 134.38 326.22 L 133.83 320.96 L 133.49 315.75 L 133.36 310.60 L 133.44 305.52 L 133.70 300.51 L 134.15 295.59 L 134.78 290.76 L 135.58 286.02 L 136.54 281.39 L 137.65 276.87 L 138.91 272.46 L 140.30 268.16 L 141.82 263.98 L 143.45 259.93 L 145.19 256.00 L 147.03 252.19 L 148.96 248.51 L 150.97 244.96 L 153.05 241.53 L 155.20 238.23 L 157.41 235.04 L 159.67 231.98 L 161.97 229.04 L 164.31 226.21 L 166.68 223.49 L 169.08 220.88 L 171.49 218.38 L 173.92 215.97 L 176.37 213.66 L 178.81 211.44 L 181.27 209.30 L 183.72 207.25 L 186.17 205.27 L 188.62 203.36 L 191.07 201.52 L 193.51 199.73 L 195.95 198.01 L 198.38 196.33 L 200.81 194.70 L 203.23 193.12 L 205.66 191.57 L 208.09 190.05 L 210.52 188.57 L 212.96 187.12 L 215.41 185.69 L 217.87 184.28 L 220.35 182.90 L 222.85 181.53 L 225.37 180.19 L 227.92 178.86 L 230.51 177.55 L 233.14 176.26 L 235.80 175.00 L 238.52 173.75 L 241.28 172.53 L 244.10 171.33 L 246.98 170.16 L 249.92 169.03 L 252.92 167.93 L 256.00 166.87 L 259.15 165.86 L 262.37 164.91 L 265.67 164.00 L 269.05 163.16 L 272.51 162.39 L 276.04 161.70 L 279.66 161.09 L 283.36 160.57 L 287.15 160.14 L 291.01 159.82 L 294.94 159.61 L 298.96 159.52 L 303.04 159.56 L 307.19 159.72 L 311.41 160.03 L 315.68 160.49 L 320.01 161.11 L 324.38 161.88 L 328.80 162.83 L 333.24 163.94 L 337.72 165.24 L 342.21 166.73 L 346.71 168.40 L 351.21 170.27 L 355.70 172.34 L 360.17 174.62 L 364.60 177.09 L 369.00 179.78 L 373.34 182.68 L 377.62 185.78 L 381.82 189.10 L 385.94 192.63 L 389.95 196.36 L 393.85 200.30 L 397.63 204.45 L 401.28 208.80 L 404.77 213.34 L 408.11 218.08 L 411.27 223.00 L 414.26 228.10 L 417.05 233.37 L 419.63 238.80 L 422.00 244.39 L 424.15 250.13 L 426.06 256.00" stroke="currentColor" stroke-width="5.00" stroke-opacity="0.774" stroke-linecap="round" stroke-linejoin="round"/>
<path d="M 455.68 256.00 L 455.52 262.97 L 455.05 269.92 L 454.26 276.84 L 453.17 283.71 L 451.76 290.52 L 450.05 297.25 L 448.04 303.88 L 445.74 310.41 L 443.15 316.81 L 440.28 323.07 L 437.14 329.19 L 433.74 335.13 L 430.08 340.91 L 426.18 346.49 L 422.05 351.87 L 417.70 357.04 L 413.15 362.00 L 408.39 366.72 L 403.45 371.20 L 398.35 375.44 L 393.08 379.43 L 387.68 383.16 L 382.14 386.62 L 376.50 389.82 L 370.75 392.75 L 364.92 395.41 L 359.01 397.79 L 353.06 399.89 L 347.06 401.72 L 341.03 403.27 L 334.99 404.55 L 328.95 405.56 L 322.92 406.31 L 316.92 406.79 L 310.96 407.01 L 305.05 406.97 L 299.21 406.69 L 293.44 406.17 L 287.76 405.41 L 282.17 404.43 L 276.69 403.23 L 271.33 401.82 L 266.08 400.21 L 260.97 398.42 L 256.00 396.43 L 251.17 394.28 L 246.49 391.97 L 241.97 389.51 L 237.60 386.90 L 233.40 384.17 L 229.36 381.32 L 225.49 378.36 L 221.79 375.30 L 218.26 372.15 L 214.90 368.92 L 211.71 365.63 L 208.68 362.28 L 205.82 358.88 L 203.13 355.44 L 200.59 351.97 L 198.22 348.47 L 196.00 344.96 L 193.92 341.44 L 192.00 337.92 L 190.21 334.41 L 188.56 330.90 L 187.04 327.42 L 185.64 323.95 L 184.36 320.51 L 183.19 317.10 L 182.13 313.72 L 181.16 310.37 L 180.29 307.06 L 179.51 303.79 L 178.81 300.56 L 178.19 297.37 L 177.64 294.22 L 177.15 291.11 L 176.72 288.03 L 176.35 284.99 L 176.03 281.98 L 175.75 279.01 L 175.52 276.07 L 175.32 273.15 L 175.16 270.25 L 175.03 267.38 L 174.93 264.52 L 174.87 261.67 L 174.82 258.83 L 174.81 256.00 L 174.82 253.17 L 174.87 250.33 L 174.93 247.48 L 175.03 244.62 L 175.16 241.75 L 175.32 238.85 L 175.52 235.93 L 175.75 232.99 L 176.03 230.02 L 176.35 227.01 L 176.72 223.97 L 177.15 220.89 L 177.64 217.78 L 178.19 214.63 L 178.81 211.44 L 179.51 208.21 L 180.29 204.94 L 181.16 201.63 L 182.13 198.28 L 183.19 194.90 L 184.36 191.49 L 185.64 188.05 L 187.04 184.58 L 188.56 181.10 L 190.21 177.59 L 192.00 174.08 L 193.92 170.56 L 196.00 167.04 L 198.22 163.53 L 200.59 160.03 L 203.13 156.56 L 205.82 153.12 L 208.68 149.72 L 211.71 146.37 L 214.90 143.08 L 218.26 139.85 L 221.79 136.70 L 225.49 133.64 L 229.36 130.68 L 233.40 127.83 L 237.60 125.10 L 241.97 122.49 L 246.49 120.03 L 251.17 117.72 L 256.00 115.57 L 260.97 113.58 L 266.08 111.79 L 271.33 110.18 L 276.69 108.77 L 282.17 107.57 L 287.76 106.59 L 293.44 105.83 L 299.21 105.31 L 305.05 105.03 L 310.96 104.99 L 316.92 105.21 L 322.92 105.69 L 328.95 106.44 L 334.99 107.45 L 341.03 108.73 L 347.06 110.28 L 353.06 112.11 L 359.01 114.21 L 364.92 116.59 L 370.75 119.25 L 376.50 122.18 L 382.14 125.38 L 387.68 128.84 L 393.08 132.57 L 398.35 136.56 L 403.45 140.80 L 408.39 145.28 L 413.15 150.00 L 417.70 154.96 L 422.05 160.13 L 426.18 165.51 L 430.08 171.09 L 433.74 176.87 L 437.14 182.81 L 440.28 188.93 L 443.15 195.19 L 445.74 201.59 L 448.04 208.12 L 450.05 214.75 L 451.76 221.48 L 453.17 228.29 L 454.26 235.16 L 455.05 242.08 L 455.52 249.03 L 455.68 256.00" stroke="currentColor" stroke-width="5.00" stroke-opacity="0.775" stroke-linecap="round" stroke-linejoin="round"/>
<path d="M 337.19 256.00 L 337.18 258.83 L 337.13 261.67 L 337.07 264.52 L 336.97 267.38 L 336.84 270.25 L 336.68 273.15 L 336.48 276.07 L 336.25 279.01 L 335.97 281.98 L 335.65 284.99 L 335.28 288.03 L 334.85 291.11 L 334.36 294.22 L 333.81 297.37 L 333.19 300.56 L 332.49 303.79 L 331.71 307.06 L 330.84 310.37 L 329.87 313.72 L 328.81 317.10 L 327.64 320.51 L 326.36 323.95 L 324.96 327.42 L 323.44 330.90 L 321.79 334.41 L 320.00 337.92 L 318.08 341.44 L 316.00 344.96 L 313.78 348.47 L 311.41 351.97 L 308.87 355.44 L 306.18 358.88 L 303.32 362.28 L 300.29 365.63 L 297.10 368.92 L 293.74 372.15 L 290.21 375.30 L 286.51 378.36 L 282.64 381.32 L 278.60 384.17 L 274.40 386.90 L 270.03 389.51 L 265.51 391.97 L 260.83 394.28 L 256.00 396.43 L 251.03 398.42 L 245.92 400.21 L 240.67 401.82 L 235.31 403.23 L 229.83 404.43 L 224.24 405.41 L 218.56 406.17 L 212.79 406.69 L 206.95 406.97 L 201.04 407.01 L 195.08 406.79 L 189.08 406.31 L 183.05 405.56 L 177.01 404.55 L 170.97 403.27 L 164.94 401.72 L 158.94 399.89 L 152.99 397.79 L 147.08 395.41 L 141.25 392.75 L 135.50 389.82 L 129.86 386.62 L 124.32 383.16 L 118.92 379.43 L 113.65 375.44 L 108.55 371.20 L 103.61 366.72 L 98.85 362.00 L 94.30 357.04 L 89.95 351.87 L 85.82 346.49 L 81.92 340.91 L 78.26 335.13 L 74.86 329.19 L 71.72 323.07 L 68.85 316.81 L 66.26 310.41 L 63.96 303.88 L 61.95 297.25 L 60.24 290.52 L 58.83 283.71 L 57.74 276.84 L 56.95 269.92 L 56.48 262.97 L 56.32 256.00 L 56.48 249.03 L 56.95 242.08 L 57.74 235.16 L 58.83 228.29 L 60.24 221.48 L 61.95 214.75 L 63.96 208.12 L 66.26 201.59 L 68.85 195.19 L 71.72 188.93 L 74.86 182.81 L 78.26 176.87 L 81.92 171.09 L 85.82 165.51 L 89.95 160.13 L 94.30 154.96 L 98.85 150.00 L 103.61 145.28 L 108.55 140.80 L 113.65 136.56 L 118.92 132.57 L 124.32 128.84 L 129.86 125.38 L 135.50 122.18 L 141.25 119.25 L 147.08 116.59 L 152.99 114.21 L 158.94 112.11 L 164.94 110.28 L 170.97 108.73 L 177.01 107.45 L 183.05 106.44 L 189.08 105.69 L 195.08 105.21 L 201.04 104.99 L 206.95 105.03 L 212.79 105.31 L 218.56 105.83 L 224.24 106.59 L 229.83 107.57 L 235.31 108.77 L 240.67 110.18 L 245.92 111.79 L 251.03 113.58 L 256.00 115.57 L 260.83 117.72 L 265.51 120.03 L 270.03 122.49 L 274.40 125.10 L 278.60 127.83 L 282.64 130.68 L 286.51 133.64 L 290.21 136.70 L 293.74 139.85 L 297.10 143.08 L 300.29 146.37 L 303.32 149.72 L 306.18 153.12 L 308.87 156.56 L 311.41 160.03 L 313.78 163.53 L 316.00 167.04 L 318.08 170.56 L 320.00 174.08 L 321.79 177.59 L 323.44 181.10 L 324.96 184.58 L 326.36 188.05 L 327.64 191.49 L 328.81 194.90 L 329.87 198.28 L 330.84 201.63 L 331.71 204.94 L 332.49 208.21 L 333.19 211.44 L 333.81 214.63 L 334.36 217.78 L 334.85 220.89 L 335.28 223.97 L 335.65 227.01 L 335.97 230.02 L 336.25 232.99 L 336.48 235.93 L 336.68 238.85 L 336.84 241.75 L 336.97 244.62 L 337.07 247.48 L 337.13 250.33 L 337.18 253.17 L 337.19 256.00" stroke="currentColor" stroke-width="5.00" stroke-opacity="0.775" stroke-linecap="round" stroke-linejoin="round"/>
<path d="M 426.06 256.00 L 424.15 261.87 L 422.00 267.61 L 419.63 273.20 L 417.05 278.63 L 414.26 283.90 L 411.27 289.00 L 408.11 293.92 L 404.77 298.66 L 401.28 303.20 L 397.63 307.55 L 393.85 311.70 L 389.95 315.64 L 385.94 319.37 L 381.82 322.90 L 377.62 326.22 L 373.34 329.32 L 369.00 332.22 L 364.60 334.91 L 360.17 337.38 L 355.70 339.66 L 351.21 341.73 L 346.71 343.60 L 342.21 345.27 L 337.72 346.76 L 333.24 348.06 L 328.80 349.17 L 324.38 350.12 L 320.01 350.89 L 315.68 351.51 L 311.41 351.97 L 307.19 352.28 L 303.04 352.44 L 298.96 352.48 L 294.94 352.39 L 291.01 352.18 L 287.15 351.86 L 283.36 351.43 L 279.66 350.91 L 276.04 350.30 L 272.51 349.61 L 269.05 348.84 L 265.67 348.00 L 262.37 347.09 L 259.15 346.14 L 256.00 345.13 L 252.92 344.07 L 249.92 342.97 L 246.98 341.84 L 244.10 340.67 L 241.28 339.47 L 238.52 338.25 L 235.80 337.00 L 233.14 335.74 L 230.51 334.45 L 227.92 333.14 L 225.37 331.81 L 222.85 330.47 L 220.35 329.10 L 217.87 327.72 L 215.41 326.31 L 212.96 324.88 L 210.52 323.43 L 208.09 321.95 L 205.66 320.43 L 203.23 318.88 L 200.81 317.30 L 198.38 315.67 L 195.95 313.99 L 193.51 312.27 L 191.07 310.48 L 188.62 308.64 L 186.17 306.73 L 183.72 304.75 L 181.27 302.70 L 178.81 300.56 L 176.37 298.34 L 173.92 296.03 L 171.49 293.62 L 169.08 291.12 L 166.68 288.51 L 164.31 285.79 L 161.97 282.96 L 159.67 280.02 L 157.41 276.96 L 155.20 273.77 L 153.05 270.47 L 150.97 267.04 L 148.96 263.49 L 147.03 259.81 L 145.19 256.00 L 143.45 252.07 L 141.82 248.02 L 140.30 243.84 L 138.91 239.54 L 137.65 235.13 L 136.54 230.61 L 135.58 225.98 L 134.78 221.24 L 134.15 216.41 L 133.70 211.49 L 133.44 206.48 L 133.36 201.40 L 133.49 196.25 L 133.83 191.04 L 134.38 185.78 L 135.15 180.49 L 136.15 175.16 L 137.38 169.81 L 138.84 164.46 L 140.54 159.12 L 142.48 153.79 L 144.67 148.49 L 147.10 143.23 L 149.78 138.03 L 152.71 132.90 L 155.88 127.85 L 159.29 122.89 L 162.95 118.04 L 166.84 113.32 L 170.97 108.73 L 175.33 104.28 L 179.91 100.00 L 184.72 95.89 L 189.73 91.97 L 194.94 88.25 L 200.35 84.74 L 205.95 81.44 L 211.72 78.39 L 217.65 75.57 L 223.73 73.00 L 229.96 70.70 L 236.31 68.67 L 242.78 66.91 L 249.35 65.44 L 256.00 64.26 L 262.73 63.37 L 269.51 62.79 L 276.34 62.51 L 283.19 62.54 L 290.05 62.87 L 296.91 63.52 L 303.75 64.48 L 310.55 65.75 L 317.30 67.32 L 323.99 69.21 L 330.59 71.39 L 337.09 73.88 L 343.47 76.66 L 349.73 79.72 L 355.84 83.07 L 361.80 86.69 L 367.58 90.58 L 373.18 94.72 L 378.58 99.10 L 383.77 103.73 L 388.75 108.57 L 393.49 113.63 L 397.99 118.88 L 402.24 124.33 L 406.23 129.94 L 409.95 135.72 L 413.40 141.64 L 416.57 147.69 L 419.46 153.86 L 422.05 160.13 L 424.36 166.48 L 426.37 172.91 L 428.08 179.39 L 429.50 185.90 L 430.61 192.45 L 431.43 199.00 L 431.96 205.54 L 432.20 212.07 L 432.14 218.56 L 431.80 225.00 L 431.19 231.38 L 430.30 237.68 L 429.14 243.89 L 427.73 250.00 L 426.06 256.00" stroke="currentColor" stroke-width="5.00" stroke-opacity="0.776" stroke-linecap="round" stroke-linejoin="round"/>
<path d="M 366.81 256.00 L 364.97 259.81 L 363.04 263.49 L 361.03 267.04 L 358.95 270.47 L 356.80 273.77 L 354.59 276.96 L 352.33 280.02 L 350.03 282.96 L 347.69 285.79 L 345.32 288.51 L 342.92 291.12 L 340.51 293.62 L 338.08 296.03 L 335.63 298.34 L 333.19 300.56 L 330.73 302.70 L 328.28 304.75 L 325.83 306.73 L 323.38 308.64 L 320.93 310.48 L 318.49 312.27 L 316.05 313.99 L 313.62 315.67 L 311.19 317.30 L 308.77 318.88 L 306.34 320.43 L 303.91 321.95 L 301.48 323.43 L 299.04 324.88 L 296.59 326.31 L 294.13 327.72 L 291.65 329.10 L 289.15 330.47 L 286.63 331.81 L 284.08 333.14 L 281.49 334.45 L 278.86 335.74 L 276.20 337.00 L 273.48 338.25 L 270.72 339.47 L 267.90 340.67 L 265.02 341.84 L 262.08 342.97 L 259.08 344.07 L 256.00 345.13 L 252.85 346.14 L 249.63 347.09 L 246.33 348.00 L 242.95 348.84 L 239.49 349.61 L 235.96 350.30 L 232.34 350.91 L 228.64 351.43 L 224.85 351.86 L 220.99 352.18 L 217.06 352.39 L 213.04 352.48 L 208.96 352.44 L 204.81 352.28 L 200.59 351.97 L 196.32 351.51 L 191.99 350.89 L 187.62 350.12 L 183.20 349.17 L 178.76 348.06 L 174.28 346.76 L 169.79 345.27 L 165.29 343.60 L 160.79 341.73 L 156.30 339.66 L 151.83 337.38 L 147.40 334.91 L 143.00 332.22 L 138.66 329.32 L 134.38 326.22 L 130.18 322.90 L 126.06 319.37 L 122.05 315.64 L 118.15 311.70 L 114.37 307.55 L 110.72 303.20 L 107.23 298.66 L 103.89 293.92 L 100.73 289.00 L 97.74 283.90 L 94.95 278.63 L 92.37 273.20 L 90.00 267.61 L 87.85 261.87 L 85.94 256.00 L 84.27 250.00 L 82.86 243.89 L 81.70 237.68 L 80.81 231.38 L 80.20 225.00 L 79.86 218.56 L 79.80 212.07 L 80.04 205.54 L 80.57 199.00 L 81.39 192.45 L 82.50 185.90 L 83.92 179.39 L 85.63 172.91 L 87.64 166.48 L 89.95 160.13 L 92.54 153.86 L 95.43 147.69 L 98.60 141.64 L 102.05 135.72 L 105.77 129.94 L 109.76 124.33 L 114.01 118.88 L 118.51 113.63 L 123.25 108.57 L 128.23 103.73 L 133.42 99.10 L 138.82 94.72 L 144.42 90.58 L 150.20 86.69 L 156.16 83.07 L 162.27 79.72 L 168.53 76.66 L 174.91 73.88 L 181.41 71.39 L 188.01 69.21 L 194.70 67.32 L 201.45 65.75 L 208.25 64.48 L 215.09 63.52 L 221.95 62.87 L 228.81 62.54 L 235.66 62.51 L 242.49 62.79 L 249.27 63.37 L 256.00 64.26 L 262.65 65.44 L 269.22 66.91 L 275.69 68.67 L 282.04 70.70 L 288.27 73.00 L 294.35 75.57 L 300.28 78.39 L 306.05 81.44 L 311.65 84.74 L 317.06 88.25 L 322.27 91.97 L 327.28 95.89 L 332.09 100.00 L 336.67 104.28 L 341.03 108.73 L 345.16 113.32 L 349.05 118.04 L 352.71 122.89 L 356.12 127.85 L 359.29 132.90 L 362.22 138.03 L 364.90 143.23 L 367.33 148.49 L 369.52 153.79 L 371.46 159.12 L 373.16 164.46 L 374.62 169.81 L 375.85 175.16 L 376.85 180.49 L 377.62 185.78 L 378.17 191.04 L 378.51 196.25 L 378.64 201.40 L 378.56 206.48 L 378.30 211.49 L 377.85 216.41 L 377.22 221.24 L 376.42 225.98 L 375.46 230.61 L 374.35 235.13 L 373.09 239.54 L 371.70 243.84 L 370.18 248.02 L 368.55 252.07 L 366.81 256.00" stroke="currentColor" stroke-width="5.00" stroke-opacity="0.776" stroke-linecap="round" stroke-linejoin="round"/>
</svg>