<svg xmlns="http://www.w3.org/2000/svg" viewBox="0 0 512 512" fill="none">
<path d="M 277.19 130.52 L 283.81 76.12 L 282.61 67.97 L 274.79 114.24 L 268.16 168.64 L 269.36 176.79 L 277.19 130.52" stroke="currentColor" stroke-width="1.00" stroke-opacity="0.467" stroke-linecap="round" stroke-linejoin="round"/>
<path d="M 237.21 146.57 L 229.39 88.16 L 228.19 63.98 L 234.81 98.19 L 242.64 156.60 L 243.84 180.78 L 237.21 146.57" stroke="currentColor" stroke-width="1.00" stroke-opacity="0.469" stroke-linecap="round" stroke-linejoin="round"/>
<path d="M 324.56 126.54 L 338.84 83.19 L 328.61 89.85 L 304.11 139.87 L 289.84 183.22 L 300.06 176.56 L 324.56 126.54" stroke="currentColor" stroke-width="1.00" stroke-opacity="0.479" stroke-linecap="round" stroke-linejoin="round"/>
<path d="M 207.89 169.58 L 183.39 116.46 L 173.16 80.08 L 187.44 96.83 L 211.94 149.95 L 222.16 186.33 L 207.89 169.58" stroke="currentColor" stroke-width="1.00" stroke-opacity="0.485" stroke-linecap="round" stroke-linejoin="round"/>
<path d="M 373.37 138.13 L 386.06 108.63 L 360.65 124.47 L 322.56 169.82 L 309.87 199.33 L 335.28 183.49 L 373.37 138.13" stroke="currentColor" stroke-width="1.00" stroke-opacity="0.504" stroke-linecap="round" stroke-linejoin="round"/>
<path d="M 189.44 194.51 L 151.35 155.33 L 125.94 114.81 L 138.63 113.45 L 176.72 152.62 L 202.13 193.15 L 189.44 194.51" stroke="currentColor" stroke-width="1.00" stroke-opacity="0.513" stroke-linecap="round" stroke-linejoin="round"/>
<path d="M 416.07 165.94 L 418.44 148.17 L 376.51 165.24 L 332.21 200.09 L 329.84 217.87 L 371.77 200.79 L 416.07 165.94" stroke="currentColor" stroke-width="1.00" stroke-opacity="0.542" stroke-linecap="round" stroke-linejoin="round"/>
<path d="M 179.79 217.75 L 135.49 197.86 L 93.56 163.13 L 95.93 148.29 L 140.23 168.17 L 182.16 202.90 L 179.79 217.75" stroke="currentColor" stroke-width="1.00" stroke-opacity="0.550" stroke-linecap="round" stroke-linejoin="round"/>
<path d="M 445.29 207.17 L 431.89 195.09 L 377.34 205.88 L 336.20 228.76 L 349.60 240.85 L 404.15 230.06 L 445.29 207.17" stroke="currentColor" stroke-width="1.00" stroke-opacity="0.589" stroke-linecap="round" stroke-linejoin="round"/>
<path d="M 175.80 237.96 L 134.66 237.62 L 80.11 217.62 L 66.71 197.97 L 107.85 198.32 L 162.40 218.31 L 175.80 237.96" stroke="currentColor" stroke-width="1.00" stroke-opacity="0.593" stroke-linecap="round" stroke-linejoin="round"/>
<path d="M 455.68 256.00 L 426.06 241.86 L 366.81 241.86 L 337.19 256.00 L 366.81 270.14 L 426.06 270.14 L 455.68 256.00" stroke="currentColor" stroke-width="1.00" stroke-opacity="0.640" stroke-linecap="round" stroke-linejoin="round"/>
<path d="M 174.81 256.00 L 145.19 270.14 L 85.94 270.14 L 56.32 256.00 L 85.94 241.86 L 145.19 241.86 L 174.81 256.00" stroke="currentColor" stroke-width="1.00" stroke-opacity="0.640" stroke-linecap="round" stroke-linejoin="round"/>
<path d="M 175.80 274.04 L 162.40 293.69 L 107.85 313.68 L 66.71 314.03 L 80.11 294.38 L 134.66 274.38 L 175.80 274.04" stroke="currentColor" stroke-width="1.00" stroke-opacity="0.687" stroke-linecap="round" stroke-linejoin="round"/>
<path d="M 445.29 304.83 L 404.15 281.94 L 349.60 271.15 L 336.20 283.24 L 377.34 306.12 L 431.89 316.91 L 445.29 304.83" stroke="currentColor" stroke-width="1.00" stroke-opacity="0.691" stroke-linecap="round" stroke-linejoin="round"/>
<path d="M 179.79 294.25 L 182.16 309.10 L 140.23 343.83 L 95.93 363.71 L 93.56 348.87 L 135.49 314.14 L 179.79 294.25" stroke="currentColor" stroke-width="1.00" stroke-opacity="0.730" stroke-linecap="round" stroke-linejoin="round"/>
<path d="M 416.07 346.06 L 371.77 311.21 L 329.84 294.13 L 332.21 311.91 L 376.51 346.76 L 418.44 363.83 L 416.07 346.06" stroke="currentColor" stroke-width="1.00" stroke-opacity="0.738" stroke-linecap="round" stroke-linejoin="round"/>
<path d="M 426.06 241.86 L 424.65 245.89 L 423.10 249.87 L 421.43 253.78 L 419.63 257.61 L 417.71 261.38 L 415.68 265.06 L 413.53 268.67 L 411.27 272.19 L 408.92 275.63 L 406.46 278.98 L 403.91 282.24 L 401.28 285.40 L 398.56 288.47 L 395.76 291.44 L 392.89 294.31 L 389.95 297.09 L 386.95 299.76 L 383.89 302.33 L 380.78 304.80 L 377.62 307.17 L 374.42 309.43 L 371.18 311.59 L 367.90 313.65 L 364.60 315.61 L 361.28 317.46 L 357.94 319.22 L 354.58 320.87 L 351.21 322.43 L 347.84 323.89 L 344.46 325.26 L 341.09 326.53 L 337.72 327.71 L 334.36 328.80 L 331.02 329.80 L 327.69 330.72 L 324.38 331.55 L 321.10 332.31 L 317.84 332.98 L 314.61 333.58 L 311.41 334.11 L 308.24 334.56 L 305.11 334.95 L 302.01 335.27 L 298.96 335.53 L 295.94 335.73 L 292.97 335.88 L 290.03 335.97 L 287.15 336.01 L 284.30 336.00 L 281.50 335.95 L 278.75 335.85 L 276.04 335.72 L 273.38 335.55 L 270.77 335.34 L 268.20 335.10 L 265.67 334.83 L 263.19 334.54 L 260.75 334.22 L 258.35 333.87 L 256.00 333.51 L 253.69 333.12 L 251.41 332.72 L 249.18 332.30 L 246.98 331.87 L 244.81 331.42 L 242.68 330.97 L 240.59 330.50 L 238.52 330.02 L 236.48 329.53 L 234.46 329.03 L 232.48 328.53 L 230.51 328.01 L 228.57 327.49 L 226.64 326.96 L 224.74 326.42 L 222.85 325.87 L 220.97 325.32 L 219.10 324.75 L 217.25 324.18 L 215.41 323.59 L 213.57 322.99 L 211.74 322.37 L 209.91 321.74 L 208.09 321.10 L 206.27 320.43 L 204.45 319.75 L 202.63 319.05 L 200.81 318.32 L 198.99 317.56 L 197.16 316.78 L 195.34 315.97 L 193.51 315.13 L 191.68 314.26 L 189.85 313.35 L 188.01 312.40 L 186.17 311.41 L 184.33 310.38 L 182.49 309.30 L 180.65 308.18 L 178.81 307.00 L 176.98 305.78 L 175.14 304.50 L 173.32 303.16 L 171.49 301.77 L 169.68 300.31 L 167.88 298.79 L 166.09 297.21 L 164.31 295.56 L 162.55 293.85 L 160.82 292.06 L 159.10 290.21 L 157.41 288.28 L 155.75 286.28 L 154.12 284.20 L 152.53 282.05 L 150.97 279.82 L 149.45 277.52 L 147.98 275.14 L 146.56 272.68 L 145.19 270.14 L 143.87 267.53 L 142.62 264.84 L 141.43 262.07 L 140.30 259.23 L 139.25 256.31 L 138.27 253.32 L 137.36 250.26 L 136.54 247.12 L 135.81 243.92 L 135.16 240.65 L 134.61 237.31 L 134.15 233.92 L 133.80 230.46 L 133.55 226.94 L 133.40 223.38 L 133.36 219.76 L 133.44 216.09 L 133.63 212.38 L 133.95 208.62 L 134.38 204.83 L 134.94 201.01 L 135.62 197.16 L 136.43 193.29 L 137.38 189.39 L 138.45 185.49 L 139.66 181.57 L 141.00 177.64 L 142.48 173.72 L 144.10 169.80 L 145.86 165.90 L 147.75 162.00 L 149.78 158.13 L 151.95 154.29 L 154.26 150.47 L 156.71 146.70 L 159.29 142.97 L 162.01 139.28 L 164.86 135.65 L 167.85 132.08 L 170.97 128.57 L 174.22 125.14 L 177.60 121.78 L 181.09 118.50 L 184.72 115.31 L 188.46 112.21 L 192.31 109.20 L 196.28 106.30 L 200.35 103.51 L 204.53 100.82 L 208.81 98.25 L 213.18 95.81 L 217.65 93.49 L 222.20 91.29 L 226.83 89.23 L 231.53 87.31 L 236.31 85.52 L 241.15 83.88 L 246.05 82.39 L 251.00 81.04 L 256.00 79.85 L 261.04 78.81 L 266.11 77.93 L 271.21 77.21 L 276.34 76.65 L 281.47 76.24 L 286.62 76.01 L 291.77 75.93 L 296.91 76.02 L 302.04 76.28 L 307.16 76.70 L 312.25 77.28 L 317.30 78.03 L 322.32 78.94 L 327.30 80.01 L 332.22 81.25 L 337.09 82.64 L 341.89 84.19 L 346.62 85.90 L 351.27 87.76 L 355.84 89.77 L 360.32 91.93 L 364.71 94.23 L 369.00 96.68 L 373.18 99.26 L 377.25 101.98 L 381.20 104.82 L 385.04 107.79 L 388.75 110.89 L 392.32 114.10 L 395.77 117.42 L 399.07 120.85 L 402.24 124.38 L 405.25 128.01 L 408.12 131.73 L 410.84 135.54 L 413.40 139.43 L 415.81 143.39 L 418.05 147.43 L 420.13 151.52 L 422.05 155.68 L 423.81 159.88 L 425.40 164.14 L 426.82 168.43 L 428.08 172.75 L 429.17 177.11 L 430.09 181.48 L 430.85 185.88 L 431.43 190.28 L 431.86 194.69 L 432.11 199.09 L 432.21 203.49 L 432.14 207.87 L 431.92 212.24 L 431.53 216.58 L 430.99 220.90 L 430.30 225.18 L 429.46 229.42 L 428.47 233.62 L 427.33 237.76 L 426.06 241.86" stroke="currentColor" stroke-width="3.20" stroke-opacity="0.759" stroke-linecap="round" stroke-linejoin="round"/>
<path d="M 366.81 241.86 L 365.44 244.83 L 364.02 247.75 L 362.55 250.60 L 361.03 253.40 L 359.47 256.14 L 357.88 258.82 L 356.25 261.44 L 354.59 264.01 L 352.90 266.52 L 351.18 268.97 L 349.45 271.37 L 347.69 273.71 L 345.91 276.00 L 344.12 278.24 L 342.32 280.43 L 340.51 282.57 L 338.68 284.66 L 336.86 286.71 L 335.02 288.71 L 333.19 290.67 L 331.35 292.59 L 329.51 294.47 L 327.67 296.32 L 325.83 298.12 L 323.99 299.90 L 322.15 301.64 L 320.32 303.36 L 318.49 305.04 L 316.66 306.70 L 314.84 308.33 L 313.01 309.94 L 311.19 311.53 L 309.37 313.09 L 307.55 314.64 L 305.73 316.17 L 303.91 317.68 L 302.09 319.18 L 300.26 320.66 L 298.43 322.13 L 296.59 323.59 L 294.75 325.03 L 292.90 326.46 L 291.03 327.88 L 289.15 329.29 L 287.26 330.68 L 285.36 332.07 L 283.43 333.44 L 281.49 334.80 L 279.52 336.15 L 277.54 337.49 L 275.52 338.81 L 273.48 340.11 L 271.41 341.40 L 269.32 342.67 L 267.19 343.92 L 265.02 345.15 L 262.82 346.36 L 260.59 347.55 L 258.31 348.71 L 256.00 349.84 L 253.65 350.94 L 251.25 352.01 L 248.81 353.04 L 246.33 354.03 L 243.80 354.99 L 241.23 355.90 L 238.62 356.76 L 235.96 357.57 L 233.25 358.34 L 230.50 359.04 L 227.70 359.69 L 224.85 360.28 L 221.97 360.80 L 219.03 361.26 L 216.06 361.64 L 213.04 361.95 L 209.99 362.19 L 206.89 362.34 L 203.76 362.41 L 200.59 362.39 L 197.39 362.28 L 194.16 362.08 L 190.90 361.79 L 187.62 361.39 L 184.31 360.89 L 180.98 360.29 L 177.64 359.59 L 174.28 358.77 L 170.91 357.85 L 167.54 356.81 L 164.16 355.65 L 160.79 354.38 L 157.42 352.99 L 154.06 351.48 L 150.72 349.84 L 147.40 348.09 L 144.10 346.21 L 140.82 344.21 L 137.58 342.08 L 134.38 339.83 L 131.22 337.45 L 128.11 334.95 L 125.05 332.32 L 122.05 329.57 L 119.11 326.70 L 116.24 323.70 L 113.44 320.58 L 110.72 317.35 L 108.09 314.00 L 105.54 310.53 L 103.08 306.95 L 100.73 303.26 L 98.47 299.46 L 96.32 295.56 L 94.29 291.55 L 92.37 287.45 L 90.57 283.25 L 88.90 278.97 L 87.35 274.60 L 85.94 270.14 L 84.67 265.61 L 83.53 261.01 L 82.54 256.34 L 81.70 251.60 L 81.01 246.81 L 80.47 241.97 L 80.08 237.08 L 79.86 232.15 L 79.79 227.18 L 79.89 222.19 L 80.14 217.17 L 80.57 212.13 L 81.15 207.09 L 81.91 202.04 L 82.83 196.99 L 83.92 191.95 L 85.18 186.93 L 86.60 181.92 L 88.19 176.95 L 89.95 172.01 L 91.87 167.11 L 93.95 162.25 L 96.19 157.45 L 98.60 152.71 L 101.16 148.04 L 103.88 143.44 L 106.75 138.91 L 109.76 134.48 L 112.93 130.13 L 116.23 125.87 L 119.68 121.72 L 123.25 117.68 L 126.96 113.75 L 130.80 109.93 L 134.75 106.24 L 138.82 102.67 L 143.00 99.24 L 147.29 95.94 L 151.68 92.78 L 156.16 89.77 L 160.73 86.91 L 165.38 84.19 L 170.11 81.63 L 174.91 79.23 L 179.78 76.98 L 184.70 74.90 L 189.68 72.99 L 194.70 71.24 L 199.75 69.66 L 204.84 68.24 L 209.96 67.00 L 215.09 65.93 L 220.23 65.03 L 225.38 64.30 L 230.53 63.75 L 235.66 63.36 L 240.79 63.15 L 245.89 63.10 L 250.96 63.23 L 256.00 63.52 L 261.00 63.98 L 265.95 64.60 L 270.85 65.38 L 275.69 66.33 L 280.47 67.42 L 285.17 68.68 L 289.80 70.08 L 294.35 71.63 L 298.82 73.33 L 303.19 75.16 L 307.47 77.13 L 311.65 79.23 L 315.72 81.47 L 319.69 83.82 L 323.54 86.30 L 327.28 88.88 L 330.91 91.58 L 334.40 94.39 L 337.78 97.29 L 341.03 100.29 L 344.15 103.38 L 347.14 106.55 L 349.99 109.80 L 352.71 113.13 L 355.29 116.52 L 357.74 119.98 L 360.05 123.50 L 362.22 127.07 L 364.25 130.69 L 366.14 134.35 L 367.90 138.05 L 369.52 141.77 L 371.00 145.53 L 372.34 149.31 L 373.55 153.10 L 374.62 156.91 L 375.57 160.73 L 376.38 164.55 L 377.06 168.36 L 377.62 172.17 L 378.05 175.97 L 378.37 179.76 L 378.56 183.53 L 378.64 187.27 L 378.60 190.99 L 378.45 194.69 L 378.20 198.35 L 377.85 201.97 L 377.39 205.56 L 376.84 209.10 L 376.19 212.60 L 375.46 216.06 L 374.64 219.47 L 373.73 222.83 L 372.75 226.14 L 371.70 229.39 L 370.57 232.59 L 369.38 235.74 L 368.13 238.83 L 366.81 241.86" stroke="currentColor" stroke-width="3.20" stroke-opacity="0.759" stroke-linecap="round" stroke-linejoin="round"/>
<path d="M 189.44 317.49 L 202.13 318.85 L 176.72 359.38 L 138.63 398.55 L 125.94 397.19 L 151.35 356.67 L 189.44 317.49" stroke="currentColor" stroke-width="1.00" stroke-opacity="0.767" stroke-linecap="round" stroke-linejoin="round"/>
<path d="M 455.68 256.00 L 455.59 260.60 L 455.33 265.19 L 454.88 269.76 L 454.26 274.32 L 453.47 278.86 L 452.50 283.36 L 451.36 287.83 L 450.05 292.25 L 448.57 296.63 L 446.93 300.95 L 445.12 305.21 L 443.15 309.41 L 441.02 313.53 L 438.74 317.58 L 436.31 321.55 L 433.74 325.43 L 431.02 329.22 L 428.16 332.91 L 425.17 336.50 L 422.05 339.99 L 418.81 343.37 L 415.45 346.64 L 411.97 349.80 L 408.39 352.83 L 404.70 355.74 L 400.92 358.53 L 397.04 361.19 L 393.08 363.72 L 389.04 366.12 L 384.92 368.38 L 380.74 370.51 L 376.50 372.50 L 372.19 374.36 L 367.84 376.07 L 363.45 377.65 L 359.01 379.08 L 354.55 380.38 L 350.06 381.53 L 345.55 382.55 L 341.03 383.43 L 336.50 384.17 L 331.97 384.77 L 327.44 385.23 L 322.92 385.57 L 318.42 385.77 L 313.94 385.84 L 309.48 385.78 L 305.05 385.59 L 300.66 385.29 L 296.32 384.86 L 292.01 384.31 L 287.76 383.65 L 283.56 382.88 L 279.42 382.00 L 275.34 381.02 L 271.33 379.93 L 267.38 378.75 L 263.51 377.48 L 259.72 376.11 L 256.00 374.66 L 252.36 373.13 L 248.81 371.52 L 245.35 369.84 L 241.97 368.09 L 238.68 366.28 L 235.48 364.40 L 232.38 362.47 L 229.36 360.49 L 226.44 358.46 L 223.62 356.38 L 220.89 354.27 L 218.26 352.12 L 215.72 349.94 L 213.28 347.73 L 210.93 345.50 L 208.68 343.24 L 206.52 340.97 L 204.46 338.69 L 202.48 336.40 L 200.59 334.11 L 198.80 331.81 L 197.09 329.51 L 195.46 327.21 L 193.92 324.92 L 192.46 322.64 L 191.09 320.37 L 189.78 318.11 L 188.56 315.87 L 187.40 313.64 L 186.32 311.43 L 185.31 309.25 L 184.36 307.08 L 183.47 304.94 L 182.64 302.82 L 181.88 300.73 L 181.16 298.67 L 180.50 296.63 L 179.89 294.62 L 179.33 292.63 L 178.81 290.67 L 178.34 288.74 L 177.91 286.84 L 177.51 284.96 L 177.15 283.10 L 176.83 281.28 L 176.53 279.47 L 176.26 277.69 L 176.03 275.93 L 175.82 274.19 L 175.63 272.47 L 175.46 270.77 L 175.32 269.09 L 175.20 267.42 L 175.09 265.76 L 175.00 264.12 L 174.93 262.48 L 174.88 260.86 L 174.84 259.23 L 174.82 257.62 L 174.81 256.00 L 174.82 254.38 L 174.84 252.77 L 174.88 251.14 L 174.93 249.52 L 175.00 247.88 L 175.09 246.24 L 175.20 244.58 L 175.32 242.91 L 175.46 241.23 L 175.63 239.53 L 175.82 237.81 L 176.03 236.07 L 176.26 234.31 L 176.53 232.53 L 176.83 230.72 L 177.15 228.90 L 177.51 227.04 L 177.91 225.16 L 178.34 223.26 L 178.81 221.33 L 179.33 219.37 L 179.89 217.38 L 180.50 215.37 L 181.16 213.33 L 181.88 211.27 L 182.64 209.18 L 183.47 207.06 L 184.36 204.92 L 185.31 202.75 L 186.32 200.57 L 187.40 198.36 L 188.56 196.13 L 189.78 193.89 L 191.09 191.63 L 192.46 189.36 L 193.92 187.08 L 195.46 184.79 L 197.09 182.49 L 198.80 180.19 L 200.59 177.89 L 202.48 175.60 L 204.46 173.31 L 206.52 171.03 L 208.68 168.76 L 210.93 166.50 L 213.28 164.27 L 215.72 162.06 L 218.26 159.88 L 220.89 157.73 L 223.62 155.62 L 226.44 153.54 L 229.36 151.51 L 232.38 149.53 L 235.48 147.60 L 238.68 145.72 L 241.97 143.91 L 245.35 142.16 L 248.81 140.48 L 252.36 138.87 L 256.00 137.34 L 259.72 135.89 L 263.51 134.52 L 267.38 133.25 L 271.33 132.07 L 275.34 130.98 L 279.42 130.00 L 283.56 129.12 L 287.76 128.35 L 292.01 127.69 L 296.32 127.14 L 300.66 126.71 L 305.05 126.41 L 309.48 126.22 L 313.94 126.16 L 318.42 126.23 L 322.92 126.43 L 327.44 126.77 L 331.97 127.23 L 336.50 127.83 L 341.03 128.57 L 345.55 129.45 L 350.06 130.47 L 354.55 131.62 L 359.01 132.92 L 363.45 134.35 L 367.84 135.93 L 372.19 137.64 L 376.50 139.50 L 380.74 141.49 L 384.92 143.62 L 389.04 145.88 L 393.08 148.28 L 397.04 150.81 L 400.92 153.47 L 404.70 156.26 L 408.39 159.17 L 411.97 162.20 L 415.45 165.36 L 418.81 168.63 L 422.05 172.01 L 425.17 175.50 L 428.16 179.09 L 431.02 182.78 L 433.74 186.57 L 436.31 190.45 L 438.74 194.42 L 441.02 198.47 L 443.15 202.59 L 445.12 206.79 L 446.93 211.05 L 448.57 215.37 L 450.05 219.75 L 451.36 224.17 L 452.50 228.64 L 453.47 233.14 L 454.26 237.68 L 454.88 242.24 L 455.33 246.81 L 455.59 251.40 L 455.68 256.00" stroke="currentColor" stroke-width="3.20" stroke-opacity="0.775" stroke-linecap="round" stroke-linejoin="round"/>
<path d="M 337.19 256.00 L 337.18 258.47 L 337.16 260.94 L 337.12 263.42 L 337.07 265.90 L 337.00 268.38 L 336.91 270.87 L 336.80 273.37 L 336.68 275.88 L 336.54 278.40 L 336.37 280.93 L 336.18 283.47 L 335.97 286.02 L 335.74 288.59 L 335.47 291.18 L 335.17 293.77 L 334.85 296.39 L 334.49 299.02 L 334.09 301.66 L 333.66 304.32 L 333.19 307.00 L 332.67 309.70 L 332.11 312.40 L 331.50 315.13 L 330.84 317.86 L 330.12 320.62 L 329.36 323.38 L 328.53 326.15 L 327.64 328.94 L 326.69 331.73 L 325.68 334.53 L 324.60 337.33 L 323.44 340.14 L 322.22 342.94 L 320.91 345.75 L 319.54 348.55 L 318.08 351.34 L 316.54 354.13 L 314.91 356.90 L 313.20 359.65 L 311.41 362.39 L 309.52 365.11 L 307.54 367.79 L 305.48 370.45 L 303.32 373.08 L 301.07 375.67 L 298.72 378.22 L 296.28 380.72 L 293.74 383.18 L 291.11 385.58 L 288.38 387.93 L 285.56 390.22 L 282.64 392.44 L 279.62 394.59 L 276.52 396.66 L 273.32 398.66 L 270.03 400.58 L 266.65 402.40 L 263.19 404.14 L 259.64 405.78 L 256.00 407.32 L 252.28 408.76 L 248.49 410.09 L 244.62 411.31 L 240.67 412.42 L 236.66 413.40 L 232.58 414.26 L 228.44 415.00 L 224.24 415.60 L 219.99 416.07 L 215.68 416.41 L 211.34 416.60 L 206.95 416.66 L 202.52 416.56 L 198.06 416.33 L 193.58 415.94 L 189.08 415.40 L 184.56 414.71 L 180.03 413.87 L 175.50 412.87 L 170.97 411.71 L 166.45 410.40 L 161.94 408.92 L 157.45 407.29 L 152.99 405.51 L 148.55 403.56 L 144.16 401.45 L 139.81 399.19 L 135.50 396.78 L 131.26 394.20 L 127.08 391.48 L 122.96 388.60 L 118.92 385.58 L 114.96 382.40 L 111.08 379.08 L 107.30 375.63 L 103.61 372.03 L 100.03 368.30 L 96.55 364.43 L 93.19 360.44 L 89.95 356.32 L 86.83 352.09 L 83.84 347.74 L 80.98 343.28 L 78.26 338.71 L 75.69 334.04 L 73.26 329.28 L 70.98 324.43 L 68.85 319.50 L 66.88 314.49 L 65.07 309.40 L 63.43 304.25 L 61.95 299.04 L 60.64 293.78 L 59.50 288.47 L 58.53 283.12 L 57.74 277.74 L 57.12 272.33 L 56.67 266.90 L 56.41 261.45 L 56.32 256.00 L 56.41 250.55 L 56.67 245.10 L 57.12 239.67 L 57.74 234.26 L 58.53 228.88 L 59.50 223.53 L 60.64 218.22 L 61.95 212.96 L 63.43 207.75 L 65.07 202.60 L 66.88 197.51 L 68.85 192.50 L 70.98 187.57 L 73.26 182.72 L 75.69 177.96 L 78.26 173.29 L 80.98 168.72 L 83.84 164.26 L 86.83 159.91 L 89.95 155.68 L 93.19 151.56 L 96.55 147.57 L 100.03 143.70 L 103.61 139.97 L 107.30 136.37 L 111.08 132.92 L 114.96 129.60 L 118.92 126.42 L 122.96 123.40 L 127.08 120.52 L 131.26 117.80 L 135.50 115.22 L 139.81 112.81 L 144.16 110.55 L 148.55 108.44 L 152.99 106.49 L 157.45 104.71 L 161.94 103.08 L 166.45 101.60 L 170.97 100.29 L 175.50 99.13 L 180.03 98.13 L 184.56 97.29 L 189.08 96.60 L 193.58 96.06 L 198.06 95.67 L 202.52 95.44 L 206.95 95.34 L 211.34 95.40 L 215.68 95.59 L 219.99 95.93 L 224.24 96.40 L 228.44 97.00 L 232.58 97.74 L 236.66 98.60 L 240.67 99.58 L 244.62 100.69 L 248.49 101.91 L 252.28 103.24 L 256.00 104.68 L 259.64 106.22 L 263.19 107.86 L 266.65 109.60 L 270.03 111.42 L 273.32 113.34 L 276.52 115.34 L 279.62 117.41 L 282.64 119.56 L 285.56 121.78 L 288.38 124.07 L 291.11 126.42 L 293.74 128.82 L 296.28 131.28 L 298.72 133.78 L 301.07 136.33 L 303.32 138.92 L 305.48 141.55 L 307.54 144.21 L 309.52 146.89 L 311.41 149.61 L 313.20 152.35 L 314.91 155.10 L 316.54 157.87 L 318.08 160.66 L 319.54 163.45 L 320.91 166.25 L 322.22 169.06 L 323.44 171.86 L 324.60 174.67 L 325.68 177.47 L 326.69 180.27 L 327.64 183.06 L 328.53 185.85 L 329.36 188.62 L 330.12 191.38 L 330.84 194.14 L 331.50 196.87 L 332.11 199.60 L 332.67 202.30 L 333.19 205.00 L 333.66 207.68 L 334.09 210.34 L 334.49 212.98 L 334.85 215.61 L 335.17 218.23 L 335.47 220.82 L 335.74 223.41 L 335.97 225.98 L 336.18 228.53 L 336.37 231.07 L 336.54 233.60 L 336.68 236.12 L 336.80 238.63 L 336.91 241.13 L 337.00 243.62 L 337.07 246.10 L 337.12 248.58 L 337.16 251.06 L 337.18 253.53 L 337.19 256.00" stroke="currentColor" stroke-width="3.20" stroke-opacity="0.775" stroke-linecap="round" stroke-linejoin="round"/>
<path d="M 373.37 373.87 L 335.28 328.51 L 309.87 312.67 L 322.56 342.18 L 360.65 387.53 L 386.06 403.37 L 373.37 373.87" stroke="currentColor" stroke-width="1.00" stroke-opacity="0.776" stroke-linecap="round" stroke-linejoin="round"/>
<path d="M 366.81 270.14 L 368.13 273.17 L 369.38 276.26 L 370.57 279.41 L 371.70 282.61 L 372.75 285.86 L 373.73 289.17 L 374.64 292.53 L 375.46 295.94 L 376.19 299.40 L 376.84 302.90 L 377.39 306.44 L 377.85 310.03 L 378.20 313.65 L 378.45 317.31 L 378.60 321.01 L 378.64 324.73 L 378.56 328.47 L 378.37 332.24 L 378.05 336.03 L 377.62 339.83 L 377.06 343.64 L 376.38 347.45 L 375.57 351.27 L 374.62 355.09 L 373.55 358.90 L 372.34 362.69 L 371.00 366.47 L 369.52 370.23 L 367.90 373.95 L 366.14 377.65 L 364.25 381.31 L 362.22 384.93 L 360.05 388.50 L 357.74 392.02 L 355.29 395.48 L 352.71 398.87 L 349.99 402.20 L 347.14 405.45 L 344.15 408.62 L 341.03 411.71 L 337.78 414.71 L 334.40 417.61 L 330.91 420.42 L 327.28 423.12 L 323.54 425.70 L 319.69 428.18 L 315.72 430.53 L 311.65 432.77 L 307.47 434.87 L 303.19 436.84 L 298.82 438.67 L 294.35 440.37 L 289.80 441.92 L 285.17 443.32 L 280.47 444.58 L 275.69 445.67 L 270.85 446.62 L 265.95 447.40 L 261.00 448.02 L 256.00 448.48 L 250.96 448.77 L 245.89 448.90 L 240.79 448.85 L 235.66 448.64 L 230.53 448.25 L 225.38 447.70 L 220.23 446.97 L 215.09 446.07 L 209.96 445.00 L 204.84 443.76 L 199.75 442.34 L 194.70 440.76 L 189.68 439.01 L 184.70 437.10 L 179.78 435.02 L 174.91 432.77 L 170.11 430.37 L 165.38 427.81 L 160.73 425.09 L 156.16 422.23 L 151.68 419.22 L 147.29 416.06 L 143.00 412.76 L 138.82 409.33 L 134.75 405.76 L 130.80 402.07 L 126.96 398.25 L 123.25 394.32 L 119.68 390.28 L 116.23 386.13 L 112.93 381.87 L 109.76 377.52 L 106.75 373.09 L 103.88 368.56 L 101.16 363.96 L 98.60 359.29 L 96.19 354.55 L 93.95 349.75 L 91.87 344.89 L 89.95 339.99 L 88.19 335.05 L 86.60 330.08 L 85.18 325.07 L 83.92 320.05 L 82.83 315.01 L 81.91 309.96 L 81.15 304.91 L 80.57 299.87 L 80.14 294.83 L 79.89 289.81 L 79.79 284.82 L 79.86 279.85 L 80.08 274.92 L 80.47 270.03 L 81.01 265.19 L 81.70 260.40 L 82.54 255.66 L 83.53 250.99 L 84.67 246.39 L 85.94 241.86 L 87.35 237.40 L 88.90 233.03 L 90.57 228.75 L 92.37 224.55 L 94.29 220.45 L 96.32 216.44 L 98.47 212.54 L 100.73 208.74 L 103.08 205.05 L 105.54 201.47 L 108.09 198.00 L 110.72 194.65 L 113.44 191.42 L 116.24 188.30 L 119.11 185.30 L 122.05 182.43 L 125.05 179.68 L 128.11 177.05 L 131.22 174.55 L 134.38 172.17 L 137.58 169.92 L 140.82 167.79 L 144.10 165.79 L 147.40 163.91 L 150.72 162.16 L 154.06 160.52 L 157.42 159.01 L 160.79 157.62 L 164.16 156.35 L 167.54 155.19 L 170.91 154.15 L 174.28 153.23 L 177.64 152.41 L 180.98 151.71 L 184.31 151.11 L 187.62 150.61 L 190.90 150.21 L 194.16 149.92 L 197.39 149.72 L 200.59 149.61 L 203.76 149.59 L 206.89 149.66 L 209.99 149.81 L 213.04 150.05 L 216.06 150.36 L 219.03 150.74 L 221.97 151.20 L 224.85 151.72 L 227.70 152.31 L 230.50 152.96 L 233.25 153.66 L 235.96 154.43 L 238.62 155.24 L 241.23 156.10 L 243.80 157.01 L 246.33 157.97 L 248.81 158.96 L 251.25 159.99 L 253.65 161.06 L 256.00 162.16 L 258.31 163.29 L 260.59 164.45 L 262.82 165.64 L 265.02 166.85 L 267.19 168.08 L 269.32 169.33 L 271.41 170.60 L 273.48 171.89 L 275.52 173.19 L 277.54 174.51 L 279.52 175.85 L 281.49 177.20 L 283.43 178.56 L 285.36 179.93 L 287.26 181.32 L 289.15 182.71 L 291.03 184.12 L 292.90 185.54 L 294.75 186.97 L 296.59 188.41 L 298.43 189.87 L 300.26 191.34 L 302.09 192.82 L 303.91 194.32 L 305.73 195.83 L 307.55 197.36 L 309.37 198.91 L 311.19 200.47 L 313.01 202.06 L 314.84 203.67 L 316.66 205.30 L 318.49 206.96 L 320.32 208.64 L 322.15 210.36 L 323.99 212.10 L 325.83 213.88 L 327.67 215.68 L 329.51 217.53 L 331.35 219.41 L 333.19 221.33 L 335.02 223.29 L 336.86 225.29 L 338.68 227.34 L 340.51 229.43 L 342.32 231.57 L 344.12 233.76 L 345.91 236.00 L 347.69 238.29 L 349.45 240.63 L 351.18 243.03 L 352.90 245.48 L 354.59 247.99 L 356.25 250.56 L 357.88 253.18 L 359.47 255.86 L 361.03 258.60 L 362.55 261.40 L 364.02 264.25 L 365.44 267.17 L 366.81 270.14" stroke="currentColor" stroke-width="3.20" stroke-opacity="0.791" stroke-linecap="round" stroke-linejoin="round"/>
<path d="M 426.06 270.14 L 427.33 274.24 L 428.47 278.38 L 429.46 282.58 L 430.30 286.82 L 430.99 291.10 L 431.53 295.42 L 431.92 299.76 L 432.14 304.13 L 432.21 308.51 L 432.11 312.91 L 431.86 317.31 L 431.43 321.72 L 430.85 326.12 L 430.09 330.52 L 429.17 334.89 L 428.08 339.25 L 426.82 343.57 L 425.40 347.86 L 423.81 352.12 L 422.05 356.32 L 420.13 360.48 L 418.05 364.57 L 415.81 368.61 L 413.40 372.57 L 410.84 376.46 L 408.12 380.27 L 405.25 383.99 L 402.24 387.62 L 399.07 391.15 L 395.77 394.58 L 392.32 397.90 L 388.75 401.11 L 385.04 404.21 L 381.20 407.18 L 377.25 410.02 L 373.18 412.74 L 369.00 415.32 L 364.71 417.77 L 360.32 420.07 L 355.84 422.23 L 351.27 424.24 L 346.62 426.10 L 341.89 427.81 L 337.09 429.36 L 332.22 430.75 L 327.30 431.99 L 322.32 433.06 L 317.30 433.97 L 312.25 434.72 L 307.16 435.30 L 302.04 435.72 L 296.91 435.98 L 291.77 436.07 L 286.62 435.99 L 281.47 435.76 L 276.34 435.35 L 271.21 434.79 L 266.11 434.07 L 261.04 433.19 L 256.00 432.15 L 251.00 430.96 L 246.05 429.61 L 241.15 428.12 L 236.31 426.48 L 231.53 424.69 L 226.83 422.77 L 222.20 420.71 L 217.65 418.51 L 213.18 416.19 L 208.81 413.75 L 204.53 411.18 L 200.35 408.49 L 196.28 405.70 L 192.31 402.80 L 188.46 399.79 L 184.72 396.69 L 181.09 393.50 L 177.60 390.22 L 174.22 386.86 L 170.97 383.43 L 167.85 379.92 L 164.86 376.35 L 162.01 372.72 L 159.29 369.03 L 156.71 365.30 L 154.26 361.53 L 151.95 357.71 L 149.78 353.87 L 147.75 350.00 L 145.86 346.10 L 144.10 342.20 L 142.48 338.28 L 141.00 334.36 L 139.66 330.43 L 138.45 326.51 L 137.38 322.61 L 136.43 318.71 L 135.62 314.84 L 134.94 310.99 L 134.38 307.17 L 133.95 303.38 L 133.63 299.62 L 133.44 295.91 L 133.36 292.24 L 133.40 288.62 L 133.55 285.06 L 133.80 281.54 L 134.15 278.08 L 134.61 274.69 L 135.16 271.35 L 135.81 268.08 L 136.54 264.88 L 137.36 261.74 L 138.27 258.68 L 139.25 255.69 L 140.30 252.77 L 141.43 249.93 L 142.62 247.16 L 143.87 244.47 L 145.19 241.86 L 146.56 239.32 L 147.98 236.86 L 149.45 234.48 L 150.97 232.18 L 152.53 229.95 L 154.12 227.80 L 155.75 225.72 L 157.41 223.72 L 159.10 221.79 L 160.82 219.94 L 162.55 218.15 L 164.31 216.44 L 166.09 214.79 L 167.88 213.21 L 169.68 211.69 L 171.49 210.23 L 173.32 208.84 L 175.14 207.50 L 176.98 206.22 L 178.81 205.00 L 180.65 203.82 L 182.49 202.70 L 184.33 201.62 L 186.17 200.59 L 188.01 199.60 L 189.85 198.65 L 191.68 197.74 L 193.51 196.87 L 195.34 196.03 L 197.16 195.22 L 198.99 194.44 L 200.81 193.68 L 202.63 192.95 L 204.45 192.25 L 206.27 191.57 L 208.09 190.90 L 209.91 190.26 L 211.74 189.63 L 213.57 189.01 L 215.41 188.41 L 217.25 187.82 L 219.10 187.25 L 220.97 186.68 L 222.85 186.13 L 224.74 185.58 L 226.64 185.04 L 228.57 184.51 L 230.51 183.99 L 232.48 183.47 L 234.46 182.97 L 236.48 182.47 L 238.52 181.98 L 240.59 181.50 L 242.68 181.03 L 244.81 180.58 L 246.98 180.13 L 249.18 179.70 L 251.41 179.28 L 253.69 178.88 L 256.00 178.49 L 258.35 178.13 L 260.75 177.78 L 263.19 177.46 L 265.67 177.17 L 268.20 176.90 L 270.77 176.66 L 273.38 176.45 L 276.04 176.28 L 278.75 176.15 L 281.50 176.05 L 284.30 176.00 L 287.15 175.99 L 290.03 176.03 L 292.97 176.12 L 295.94 176.27 L 298.96 176.47 L 302.01 176.73 L 305.11 177.05 L 308.24 177.44 L 311.41 177.89 L 314.61 178.42 L 317.84 179.02 L 321.10 179.69 L 324.38 180.45 L 327.69 181.28 L 331.02 182.20 L 334.36 183.20 L 337.72 184.29 L 341.09 185.47 L 344.46 186.74 L 347.84 188.11 L 351.21 189.57 L 354.58 191.13 L 357.94 192.78 L 361.28 194.54 L 364.60 196.39 L 367.90 198.35 L 371.18 200.41 L 374.42 202.57 L 377.62 204.83 L 380.78 207.20 L 383.89 209.67 L 386.95 212.24 L 389.95 214.91 L 392.89 217.69 L 395.76 220.56 L 398.56 223.53 L 401.28 226.60 L 403.91 229.76 L 406.46 233.02 L 408.92 236.37 L 411.27 239.81 L 413.53 243.33 L 415.68 246.94 L 417.71 250.62 L 419.63 254.39 L 421.43 258.22 L 423.10 262.13 L 424.65 266.11 L 426.06 270.14" stroke="currentColor" stroke-width="3.20" stroke-opacity="0.791" stroke-linecap="round" stroke-linejoin="round"/>
<path d="M 207.89 342.42 L 222.16 325.67 L 211.94 362.05 L 187.44 415.17 L 173.16 431.92 L 183.39 395.54 L 207.89 342.42" stroke="currentColor" stroke-width="1.00" stroke-opacity="0.795" stroke-linecap="round" stroke-linejoin="round"/>
<path d="M 324.56 385.46 L 300.06 335.44 L 289.84 328.78 L 304.11 372.13 L 328.61 422.15 L 338.84 428.81 L 324.56 385.46" stroke="currentColor" stroke-width="1.00" stroke-opacity="0.801" stroke-linecap="round" stroke-linejoin="round"/>
<path d="M 237.21 365.43 L 243.84 331.22 L 242.64 355.40 L 234.81 413.81 L 228.19 448.02 L 229.39 423.84 L 237.21 365.43" stroke="currentColor" stroke-width="1.00" stroke-opacity="0.811" stroke-linecap="round" stroke-linejoin="round"/>
<path d="M 277.19 381.48 L 269.36 335.21 L 268.16 343.36 L 274.79 397.76 L 282.61 444.03 L 283.81 435.88 L 277.19 381.48" stroke="currentColor" stroke-width="1.00" stroke-opacity="0.813" stroke-linecap="round" stroke-linejoin="round"/>
</svg>